<svg xmlns="http://www.w3.org/2000/svg" width="20" height="18.224" viewBox="0 0 20 18.224">
  <path id="messages" d="M3.656,17.979A1,1,0,0,1,2,17.243V15a2,2,0,0,1-2-2V6A2,2,0,0,1,2,4H13a2,2,0,0,1,2,2v7a2,2,0,0,1-2,2H8L3.656,17.979ZM4.5,14.886a.536.536,0,0,0,.26-.069l2.355-1.638A1,1,0,0,1,7.686,13H12a1,1,0,0,0,1-1V7a1,1,0,0,0-1-1H3A1,1,0,0,0,2,7v5a1.007,1.007,0,0,0,1,1,1.3,1.3,0,0,1,.844.226c.128.134.135.36.156.79,0,.063,0,.177,0,.37A.5.5,0,0,0,4.5,14.886ZM16,10.016q0,.185,0,.37v-.37c.02-.43.028-.656.156-.79A1.3,1.3,0,0,1,17,9a1.007,1.007,0,0,0,1-1V3a1,1,0,0,0-1-1H8A1,1,0,0,0,7,3H5V2A2,2,0,0,1,7,0H18a2,2,0,0,1,2,2V9a2,2,0,0,1-2,2v2.243a1,1,0,0,1-1.656.736L16,13.743V10.017Z" fill="#f2f2f2"/>
</svg>
