<svg xmlns="http://www.w3.org/2000/svg" width="20" height="20" viewBox="0 0 20 20">
  <path id="user-plus" d="M3.534,10.07a1,1,0,1,1,.733,1.86A3.579,3.579,0,0,0,2,15.26V17a1,1,0,0,0,1,1h8a1,1,0,0,0,1-1V15.353a3.658,3.658,0,0,0-2.357-3.419,1,1,0,1,1,.713-1.868A5.658,5.658,0,0,1,14,15.353V17a3,3,0,0,1-3,3H3a3,3,0,0,1-3-3V15.26a5.579,5.579,0,0,1,3.533-5.19ZM7,0a4,4,0,0,1,4,4V6A4,4,0,0,1,3,6V4A4,4,0,0,1,7,0ZM7,2A2,2,0,0,0,5,4V6A2,2,0,0,0,9,6V4A2,2,0,0,0,7,2ZM17,5h2a1,1,0,0,1,0,2H17V9a1,1,0,0,1-2,0V7H13a1,1,0,0,1,0-2h2V3a1,1,0,1,1,2,0Z" fill="#f2f2f2"/>
</svg>
