<svg xmlns="http://www.w3.org/2000/svg" width="20" height="20" viewBox="0 0 20 20">
  <path id="user-circle" d="M10,20A10,10,0,1,1,20,10,10,10,0,0,1,10,20Zm0-2a8,8,0,1,0-8-8A8,8,0,0,0,10,18ZM10,4a4,4,0,0,1,4,4v2a4,4,0,0,1-8,0V8a4,4,0,0,1,4-4Zm0,2A2,2,0,0,0,8,8v2a2,2,0,0,0,4,0V8A2,2,0,0,0,10,6ZM5.91,16.876a8.033,8.033,0,0,1-1.58-1.232,5.57,5.57,0,0,1,2.2-1.574,1,1,0,1,1,.733,1.86,3.588,3.588,0,0,0-1.358.946Zm8.144.022a3.652,3.652,0,0,0-1.41-.964,1,1,0,1,1,.712-1.868,5.65,5.65,0,0,1,2.284,1.607A8.032,8.032,0,0,1,14.054,16.9Z" fill="#f2f2f2"/>
</svg>
