<svg version="1" xmlns="http://www.w3.org/2000/svg" width="682.667" height="682.667" viewBox="0 0 512.000000 512.000000"><path d="M48.2 48.5c-.8 1.3-.9 286.5-.1 286.5.4 0 .6 2 .5 4.4-.1 2.7.2 4.2.9 4 .6-.3 1.1.5 1.1 1.6s-.4 2-.9 2c-.4 0-.5.5-.2 1 .4.6 1.2.7 1.8.3.8-.4.8-.2-.1.9-1 1.3-1 1.7.3 2.2 1.2.4 1.4 1 .5 2.5-.7 1.4-.7 2.2.2 2.7.7.5.8.3.3-.6-.5-.9-.4-1.1.3-.6.9.5.9 1.3.2 2.6-.8 1.5-.7 1.8.3 1.4.9-.3 1.7.3 2 1.6.5 1.8.3 2-1.1.8-.9-.7-.6 0 .7 1.4 1.2 1.5 2 3.1 1.6 3.7-.3.6.1 1.4 1 1.7.9.4 1.4 1.3 1.1 2.1-.3.7.1 1.6 1 2 .8.3 2.4 2.4 3.4 4.6 2.3 4.8 2.4 5 .8 4.1-.8-.4-1-.3-.5.2s1.3 1 1.8 1c.5.1 1.3.2 1.8.3.4 0 .8 1.1.7 2.3-.1 1.5.8 2.7 2.7 3.6 2.5 1.2 3.2 2.3 2.8 4.5-.1.5.8 1.1 1.9 1.4 1.2.3 2 1.4 2.1 2.7 0 1.1.3 1.6.5.9.6-1.3 4.4 1.4 4.4 3.2 0 .5-.5.3-1.1-.5-.9-1.3-1-1.3-.6 0 .2.8 1.2 1.5 2.3 1.5 1.2 0 1.9.6 1.8 1.7-.1 1.1.4 1.4 1.4 1 1.1-.4 1.4-.1.9 1.2-.4 1-.3 1.5.3 1.1.6-.3 1-.3 1 .2 0 .4 1.4 1.4 3 2.1 1.7.8 2.8 1.7 2.5 2.2-.3.5.8 1.4 2.5 2.2 1.6.7 3 1.9 3 2.6 0 .7.5 1 1 .7.6-.3 1-.2 1 .4 0 .5.9 1.3 2 1.6 1.1.3 2 1.1 2 1.6 0 .6-.5.7-1.2.3-.7-.4-.8-.3-.4.4.4.6 1.3.9 2 .6.7-.3 2 .2 2.9 1 .8.8 1.7 1.2 2.1.9.3-.4.6-.1.6.5 0 .7.6 1.2 1.3 1.2.8 0 2.2.9 3.2 2s2.1 1.8 2.4 1.5c.9-.5 3.6 1.2 3.7 2.5.3 2.1.4 2.2 1.9 1 1.2-1 1.5-.9 1.5.4 0 1 .4 1.5.9 1.1.5-.3 1.6.1 2.4.9.8.8 1.7 1.3 2 1 .8-.9 9 3.6 11 6 1.4 1.8 1.6 1.8 1.1.2-.6-1.7-.5-1.7 1.7-.6 1.3.7 2.7 1.7 3 2.3.4.5 2.2 1.1 4 1.2 1.8.2 3.9 1.1 4.6 2.1.7 1 1.3 1.2 1.3.6 0-1 .5-1 2.3 0 1.2.7 2.5 1.1 3 1 .4-.1.7.2.7.8 0 .5.7.6 1.7.3 1.1-.4 1.4-.3.9.5-.5.8-.2 1 .9.6.8-.4 2.3 0 3.2.7.9.8 1.4.9 1 .2-.5-.7 0-.9 1.3-.6 1.1.3 2 1 2 1.5s-.5.6-1.2.2c-.7-.5-.8-.3-.3.5.5.9 1 1 1.8.2 1.6-1.6 2.7-1.3 2.7.6 0 1.1.3 1.4.8.7 1.2-1.9 9.7 0 8.6 1.9-.5.9-.4.9.5.1 1.3-1.2 6.1-.7 6.1.7 0 .5.7.6 1.6.2.9-.3 2 0 2.5.8s.9.9.9.2c0-.6.9-.9 2-.6 1.1.3 1.8.8 1.6 1.2-.3.4.4.7 1.5.7 1 0 1.9-.3 1.9-.7 0-1 2.7-.5 3.7.6.5.4.1.5-.7 0-.8-.5-1.2-.5-.8 0 1.1 1.2 7.8 1.2 7.8 0 0-.6.4-.3 1 .5.8 1.4 4.1 1.9 13.7 2 2.3 0 4.4.4 4.7.8.6.9 40.8.8 42.4-.2.7-.4 1.2-.2 1.2.6 0 .9.2 1 .8.2.4-.7 2.8-1.1 5.4-1 2.5.1 4.4-.2 4.2-.6-.3-.4 1.1-.6 3.1-.4 2 .1 3.8-.2 4.2-.6.3-.5 1.1-.7 1.9-.4.8.3 1.4.1 1.4-.5s.7-.6 2 .1c1.1.6 2 .7 2 .1 0-.5.7-1.2 1.6-1.5.9-.4 1.3-.2.8.5-.4.8 0 .7 1.5 0 1.6-.9 2.1-.9 2.1.1 0 .8.3.9.8.3.4-.6 2.1-1.2 3.7-1.4 1.7-.1 3.3-.8 3.8-1.5.5-.8.9-.7 1.6.2 1 1.7 2.1 1.5 4.3-.4 2.1-2 4.9-2.4 6.7-1 1.1.8 1.3.8.8 0-.4-.7 0-1.5.9-1.8 2.2-.8 2.6-.8 2 .3-.4.5.3.7 1.5.4 1.1-.3 1.6-.9 1-1.2-.5-.4.5-1.1 2.4-1.7 2.2-.7 3.2-.7 2.8-.1-.4.6-.1.7.8.1.8-.4 1.9-.9 2.4-1.1 3.9-.9 8.4-3.1 7.8-3.8-.5-.5 0-.3 1 .4 1.4 1.1 1.7 1.1 1.7.1 0-.8.3-1 .7-.7.3.4 1.2-.1 1.9-1.1.8-1 1.3-1.2 1.4-.5 0 .7.5 1.3 1.1 1.3.5 0 .7-.5.3-1.2-.5-.8-.2-.9.9-.5 1 .3 1.7.2 1.7-.4 0-.6.5-.7 1-.4.6.3 1 .2 1-.3s1.1-1.4 2.5-2c3.2-1.5 3.8-1.5 3-.2-.3.6.1.7.9.4.9-.3 1.4-1 1.1-1.4-.3-.4.2-1.1 1.1-1.4 1-.4 1.3-.2.9.7-.4.6-.1.5.7-.4.7-.9 1.9-1.4 2.7-1.1.8.2 1.1 0 .8-.5-.4-.6.5-1.5 1.9-2.2 1.7-.7 2.3-.8 1.9 0-.4.6.2.5 1.3-.2 1.2-.7 1.9-1.7 1.6-2.1-.3-.4.3-.5 1.2-.1 1.2.5 1.5.3.9-.6-.6-1-.3-1.1 1.3-.2 1.8 1 2 .9 1.7-.9-.2-1.1 0-1.8.4-1.6.4.3 2.4-.6 4.3-1.9 2-1.3 3.8-2.1 4.2-1.8.3.3.8-.1 1.2-1 .3-.8 1.4-1.4 2.4-1.2 1.4.3 1.8-.1 1.5-1.6-.3-1.6-.1-1.7 1.5-.9 1.3.7 2.1.7 2.6-.2.4-.7.3-.8-.4-.4s-1.2.2-1.2-.3c0-1 1.4-1.5 3.3-1.2.4 0 .7-.5.7-1.3s.5-1.8 1.2-2.2c.7-.5.9-.2.4.7-.4.8 0 .5.9-.6 1.4-1.7 1.7-1.8 2.6-.5.8 1.2.9 1.1.4-.6-.3-1.4.1-2.6 1.2-3.5 1.7-1.3 1.7-1.3.4.6-.8 1.1-.2.8 1.3-.8 1.5-1.5 3.2-2.4 3.8-2.1.6.4.8.3.4-.4-.7-1.2 2.2-4.5 3.4-3.7.4.3.7-.3.6-1.3-.1-1.1.6-1.6 1.7-1.5 1.2 0 1.6-.4 1.3-1.3-.3-.8-.2-1.4.2-1.4.5 0 1.7-.7 2.8-1.6 1-.8 1.3-1.2.5-.8-1 .5-1.2.3-.7-.5.4-.7 1.3-1 1.9-.8.7.2 1.7-1 2.3-2.6.6-1.7 1.7-3.3 2.5-3.5 1.1-.3 1.1-.1-.1.7-.8.6-1 1.1-.4 1.1s1.8-.8 2.5-1.7c1-1.1 1-1.4.1-.9-.6.4-1.2.2-1.2-.3 0-.6.8-1.1 1.8-1.1 1.4 0 1.5-.2.2-1s-.8-1.4 1.1-1.2c.3 0 1.1-.9 1.9-2.1 1.2-2.1 1.2-2.1-.6-.7-1.8 1.4-1.8 1.4-.5-.3.7-.9 2-1.7 2.8-1.7.8 0 1.1-.4.8-1-.6-.9 2.1-7 3.1-7 .3 0 .2.6-.2 1.2-.4.8-.3.9.2.5.5-.5.9-1.4 1-2 .1-2.2 2.8-7.7 3.7-7.7.5 0 .5-1 .2-2.1-.5-1.5-.4-1.9.4-1.5.7.5 1.1-.1 1.1-1.4 0-1.2.4-1.9.9-1.6.5.4.7-.4.3-1.6-.4-1.6-.2-1.9.9-1.3 1.2.8 1.2.6 0-.8-.9-1.1-1-1.7-.2-1.7.6 0 1-.3 1-.8-.3-2 .2-4.3.9-3.8.5.3.6-.9.4-2.6-.3-1.8-.1-2.8.5-2.5.6.4.8-1.1.6-3.8-.3-2.5-.1-4.5.4-4.5.4 0 .8-64.7.8-143.7l-.1-143.7h-34.8c-29.1-.1-35 .1-35.9 1.3-.9 1.2-.9 1.3.1.7 1.5-.9 1.5-.1.1 2.6-.8 1.5-.8 1.9 0 1.4 1.5-1 1.4.7-.1 2.3-1 1.1-1 1.3 0 .7 1.4-.8 1.7 1 .3 1.8-1 .7-.9 2.5.3 4.4.4.7.3 1.9-.4 2.6-.8 1.1-.8 1.5.1 1.8.8.3 1 1.1.4 2.4-1.2 2.9-1.4 4.5-.4 3.8 1.2-.7 1.1.3-.2 2.8-.8 1.5-.8 1.9 0 1.4 1.3-.9 1.4.4.1 2.4-.5.9-.5 1.9.2 2.7.7.9.7 1.7-.2 2.8-1 1.2-1 1.5 0 1.5.9 0 1 .3.1 1.3-.8 1-.7 1.7.1 2.5.8.8.8 1.5-.2 2.7-1 1.2-1 1.5 0 1.5.9 0 .9.4-.1 1.7-1 1.1-1 1.4-.1.9 1.5-.9 1.5-.1.1 2.6-.8 1.5-.8 1.9 0 1.4 1.5-1 1.4.7-.2 2.3-.9 1.1-.9 1.3.1.7 1.4-.8 1.7 1 .3 1.8-1 .7-.9 2.5.3 4.4.4.7.3 1.9-.4 2.6-.8 1.1-.8 1.5.1 1.8.8.3 1 1.1.4 2.4-1.2 2.9-1.4 4.5-.4 3.8 1.2-.7 1.1.3-.2 2.8-.8 1.5-.8 1.9 0 1.4 1.4-.9 1.4 0 0 2.6-.8 1.5-.8 1.9 0 1.4 1.4-.9 1.4 0 0 2.6-.8 1.5-.8 1.9 0 1.4 1.5-1 1.4.7-.2 2.3-.9 1.1-.9 1.3.1.7 1.4-.8 1.7 1 .3 1.8-1 .7-.9 2.5.3 4.4.4.7.3 1.9-.4 2.6-.8 1.1-.8 1.5.1 1.8.8.3 1 1.1.4 2.4-1.2 2.9-1.4 4.5-.4 3.8 1.2-.7 1.1.3-.2 2.8-.8 1.5-.8 1.9 0 1.4 1.3-.9 1.4.4.1 2.4-.5.9-.5 1.9.2 2.7.7.9.7 1.7-.2 2.8-1 1.2-1 1.5 0 1.5.9 0 1 .3.1 1.3-.8 1-.7 1.7.1 2.5.8.8.8 1.5-.2 2.7-1 1.2-1 1.5 0 1.5.9 0 .9.4-.1 1.7-1 1.1-1 1.4-.1.9 1.5-.9 1.5-.1.1 2.6-.8 1.5-.8 1.9 0 1.4 1.5-1 1.4.7-.1 2.3-1 1.1-1 1.3 0 .7 1.4-.8 1.7 1 .3 1.8-1 .7-.9 2.5.3 4.4.4.7.3 1.9-.4 2.6-.8 1.1-.8 1.5.1 1.8.8.3 1 1.1.4 2.4-1.2 2.9-1.4 4.5-.4 3.8 1.2-.7 1.1.3-.2 2.8-.8 1.5-.8 1.9 0 1.4 1.3-.9 1.4.4.1 2.4-.5.9-.5 1.9.2 2.7.7.9.7 1.7-.2 2.8-1 1.2-1 1.5 0 1.5.9 0 1 .3.1 1.3-.8 1-.7 1.7.1 2.5.8.8.8 1.5-.2 2.7-1 1.2-1 1.5 0 1.5.9 0 .9.4-.1 1.7-1 1.1-1 1.4-.1.9 1.5-.9 1.5-.1.1 2.6-.8 1.5-.8 1.9 0 1.4 1.5-1 1.4.7-.1 2.3-1 1.1-1 1.3 0 .7 1.4-.8 1.7 1 .3 1.8-1 .7-.9 2.5.3 4.4.4.7.3 1.9-.4 2.6-.8 1.1-.8 1.5.1 1.8.8.3 1 1.1.4 2.4-1.2 2.9-1.4 4.5-.4 3.8 1.2-.7 1.1.3-.2 2.8-.8 1.5-.8 1.9 0 1.4 1.4-.9 1.4 0 0 2.6-.8 1.5-.8 1.9 0 1.4 1.4-.9 1.4 0 0 2.6-.8 1.5-.8 1.9 0 1.4 1.5-1 1.4.7-.1 2.3-1 1.1-1 1.3 0 .7 1.4-.8 1.7 1 .3 1.8-1 .7-.9 2.5.3 4.4.4.7.3 1.9-.4 2.6-.8 1.1-.8 1.5.1 1.8.8.3 1 1.1.4 2.4-1.2 2.9-1.4 4.5-.4 3.8 1.2-.7 1.1.3-.2 2.8-.8 1.5-.8 1.9 0 1.4 1.3-.9 1.4.4.1 2.4-.5.9-.5 1.9.2 2.7.7.9.7 1.7-.2 2.8-1 1.2-1 1.5 0 1.5.9 0 1 .3.1 1.3-.8 1-.7 1.7.1 2.5.8.8.8 1.5-.2 2.7-1 1.2-1 1.5 0 1.5.9 0 .9.4-.1 1.7-1 1.1-1 1.4-.1.9 1.5-.9 1.5-.1.1 2.6-.8 1.5-.8 1.9 0 1.4 1.5-1 1.4.7-.1 2.3-1 1.1-1 1.3 0 .7 1.4-.8 1.7 1 .3 1.8-1 .7-.9 2.5.3 4.4.4.7.3 1.9-.4 2.6-.8 1.1-.8 1.5.2 1.9 1 .3 1.1.8.1 2.6-1.5 2.4-1.7 4.3-.3 2.1.8-1.2 1-1 1 .8 0 1.5-.4 2.1-1.1 1.6-.8-.5-1 .1-.7 2 .3 1.4.1 2.9-.5 3.3-.6.4-.7.1-.2-.7.5-.9.4-1.1-.4-.6-.9.6-.9 1.1.1 2.4 1.1 1.3 1.1 1.4 0 .8-.9-.5-1.3-.3-1.1.5.3 2.8-.1 4-1.3 3.3-.6-.4-.8-.3-.4.4.3.6-.1 1.8-1 2.6-.8.9-1.3 1.6-.9 1.6.3 0-.6 1.6-2.1 3.5-1.4 1.9-3 3.2-3.5 2.9-.5-.3-.8 0-.7.7.2.7-.3 1.3-1 1.4-.7 0-2.1 1.5-3.2 3.2-1.1 1.8-2.3 3.3-2.7 3.3-.5 0-2.4 1.5-4.3 3.4-2.7 2.6-3.9 3.1-5.2 2.5-1.3-.7-1.6-.6-1.2.5.3.9-.3 1.9-1.6 2.6-1.8 1-2.1.9-1.5-.2.4-.7-.2-.2-1.3 1.1-1.2 1.5-2.4 2.1-3.2 1.6-.9-.6-1.1-.4-.5.5.6 1 .4 1.2-.8.7-.9-.3-1.8 0-2.1.9-.3.9-1 1.2-1.6.9-.5-.3-1 0-1 .7 0 .9-.3.9-1-.2-.9-1.4-1.5-.7-1.1 1.4.1.5-.5.3-1.4-.4-1.3-1.1-1.5-1.1-1.3-.1.3 1.2-10.2 6-14.2 6.5-.9.1-2.2.6-2.9 1.1-1 .6-1.2.4-.6-.6.8-1.2.6-1.2-.8-.1-.9.8-2.2 1-2.8.6-.8-.5-.9-.3-.4.6.6 1 .2 1.1-1.9.6-1.9-.5-2.6-.3-2.1.4.4.7-.2.9-1.9.6-1.5-.3-2.4-.1-2.1.4.3.4-.2 1-1 1.4-.8.3-1.5.1-1.5-.5s-.7-.3-1.6.6c-1.2 1.2-1.9 1.3-3 .4s-1.4-.9-1.4 0c0 .7-.4.9-1 .6-.5-.3-1 0-1 .7 0 .9-.3.9-1-.2-.6-1-1-1.1-1-.3 0 .7-.5 1.3-1.1 1.3-.5 0-.7-.6-.3-1.2.5-.9.3-.9-.9.1-.9.7-2.6 1.1-3.7.8-1.1-.3-2.3-.1-2.6.4-.3.6-1.2.5-2-.2-1.2-1-1.4-1-1.2.1.2.7-.3 1.5-1.1 1.8-.8.2-1.1 0-.8-.5.3-.5 0-1-.8-1s-1.2.4-.9.9c.6 1-1 1.1-2 .1-1.3-1.4-3.8-1.2-3.2.3.6 1.5-.5 1.9-1.8.7-1-1-4.6-1.1-4-.1.8 1.3-1 1-2.5-.5-1.1-1-1.3-1-.7 0 .5.9-.1 1.3-2.1 1.3s-2.4-.3-1.4-.9c1-.7.7-.9-1.1-.8-1.4.1-2.4.7-2.1 1.3.4 1.2-2.6 1.5-4.2.5-1.2-.8-2.3-.7-4.9.4-1.3.6-2.1.4-2.4-.4-.3-.9-.7-.9-1.8 0s-1.7.9-2.8 0c-.9-.7-1.7-.8-2-.2-.8 1.2-3 .9-5.2-.9-1.1-.9-1.5-1-1-.3.9 1.6-.6 1.7-2.1.2-.8-.8-1.3-.8-1.7 0-.4.6-1.5 1.1-2.4 1.1-1.5 0-1.5-.2-.2-1 .8-.5 1-1 .4-1-.5 0-1.5.5-2.1 1.1-1.4 1.4-6.5.1-5.6-1.5.4-.6 0-.6-.9.2-1.3 1-1.7 1-2.1 0-.4-1-.6-1-.6.1-.1 1.1-.4 1.1-1.8 0-1.4-1.2-1.6-1.2-.9 0 .6.9.5 1.2-.5.9-.8-.3-1.3-1.1-1.2-1.7.2-.6-.2-1.1-.7-1.1-.6 0-1 .4-1 1 0 .5-.5 1-1.1 1-.5 0-.8-.3-.6-.8.3-.4-1.2-.6-3.4-.6-2.1.1-4.2-.2-4.5-.7-.3-.5-2.7-.9-5.5-.9-2.7 0-4.9-.4-4.9-1 0-.5-.7-.6-1.7-.3-1.1.4-1.4.3-.9-.5.5-.8.2-1-.9-.6-.8.4-2.1.1-2.9-.5-.7-.6-1.6-.8-1.9-.4-.4.3-1.4 0-2.4-.8-1.1-.9-1.4-1-.9-.2.5.9.2 1.1-.8.7-.9-.3-1.6-1-1.6-1.5 0-.4-.7-.6-1.5-.3-.9.4-1.5 0-1.5-.7 0-1.1-.3-1.1-1 .1-.8 1.2-1 1.2-1-.5 0-1.6-.2-1.7-.9-.6-.8 1.3-1.2 1.2-2.8-.5-1-1.1-1.4-1.4-1-.8.7 1 .2 1-2.2.1-1.6-.6-2.8-1.5-2.5-1.9.3-.4 0-.8-.5-.8-.6 0-1.1.5-1.1 1.1 0 .5-.5.7-1 .4-.6-.4-.8-1-.6-1.4.3-.4-.5-.8-1.7-.8-1.2-.1-2.3-.6-2.5-1.1-.2-.6-1.2-.8-2.2-.5-1.2.3-2 0-2-.6 0-.7.6-.9 1.3-.5.7.4.9.3.4-.2s-1.2-.9-1.5-.9c-.4 0-1.3-.4-2.1-.9-1-.7-1.2-.6-.6.3.6 1 .3 1.1-1.4.2-1.1-.7-2.1-1.6-2.1-2.2 0-.6-.4-.8-.9-.5-.5.4-1.1.3-1.3-.1-.1-.5-1.6-1.6-3.3-2.5-1.6-1-2.9-2.2-2.8-2.7.2-.6-.4-.8-1.2-.5-.9.4-1.8-.1-2.1-1.1-.4-.9-1.3-1.4-2.1-1.1-.8.3-1.2.2-1-.2.6-1-4-5.2-4.9-4.4-.4.4-.4-.1-.1-1 .3-1 .3-1.7-.1-1.7-.4.1-1.4.1-2.2-.1-1.1-.1-.9-.4.5-1 1.9-.8 1.9-.9-.2-.9-1.3-.1-2.3-.6-2.3-1.2 0-.5-.4-.8-.9-.5-1 .7-2.4-2.2-1.6-3.4.3-.5 0-1.2-.6-1.6-.8-.4-.9-.3-.5.4s.5 1.2.2 1.2c-1.1 0-5-7.7-4.8-9.4.3-1.3 0-1.6-1-1-1.1.6-1.1.5 0-.8 1-1.3 1-1.8.1-2.4-.8-.5-.9-.3-.4.6.6.9.4 1.1-.4.6-.7-.5-1-1.4-.7-2.2.3-.7.1-1.6-.4-1.9-.9-.6-.8-3.1.3-4.1.4-.4.2-1.3-.4-2.1-.9-1-.8-1.7.1-2.8 1-1.2 1-1.5 0-1.5-.9 0-.9-.4.1-1.7 1-1.1 1-1.4.1-.9-1.5.9-1.5.1-.1-2.6.8-1.5.8-1.9 0-1.4-1.5 1-1.4-.7.2-2.3 1-1.1 1-1.3-.1-.7-1.4.8-1.7-1-.3-1.8 1-.7.9-2.5-.3-4.4-.4-.7-.3-1.9.4-2.6.8-1.1.8-1.5-.1-1.8-.8-.3-1-1.1-.4-2.4 1.2-2.9 1.4-4.5.4-3.8-1.2.7-1.1-.3.2-2.8.8-1.5.8-1.9 0-1.4-1.3.9-1.4-.4-.1-2.4.5-.9.5-1.9-.2-2.7-.7-.9-.7-1.7.2-2.8 1-1.2 1-1.5 0-1.5-.9 0-1-.3-.1-1.3.8-1 .7-1.7-.1-2.5-.8-.8-.8-1.5.2-2.7 1-1.2 1-1.5 0-1.5-.9 0-.9-.4.1-1.7 1-1.1 1-1.4.1-.9-1.5.9-1.5.1-.1-2.6.8-1.5.8-1.9 0-1.4-1.5 1-1.4-.7.1-2.3 1-1.1 1-1.3.1-.7-1.5.8-1.8-1-.4-1.8 1-.7.9-2.5-.3-4.4-.4-.7-.3-1.9.4-2.6.8-1.1.8-1.5-.1-1.8-.8-.3-1-1.1-.4-2.4 1.2-2.9 1.4-4.5.4-3.8-1.2.7-1.1-.3.2-2.8.8-1.5.8-1.9 0-1.4-1.3.9-1.4-.4-.1-2.4.5-.9.5-1.9-.2-2.7-.7-.9-.7-1.7.2-2.8 1-1.2 1-1.5 0-1.5-.9 0-1-.3-.1-1.3.8-1 .7-1.7-.1-2.5-.8-.8-.8-1.5.2-2.7 1-1.2 1-1.5 0-1.5-.9 0-.9-.4.1-1.7 1-1.1 1-1.4.1-.9-1.5.9-1.5.1-.1-2.6.8-1.5.8-1.9 0-1.4-1.5 1-1.4-.7.2-2.3 1-1.1 1-1.3 0-.7-1.5.8-1.8-1-.4-1.8 1-.7.9-2.5-.3-4.4-.4-.7-.3-1.9.4-2.6.8-1.1.8-1.5-.1-1.8-.8-.3-1-1.1-.4-2.4 1.2-2.9 1.4-4.5.4-3.8-1.2.7-1.1-.3.2-2.8.8-1.5.8-1.9 0-1.4-1.3.9-1.4-.4-.1-2.4.5-.9.5-1.9-.2-2.7-.7-.9-.7-1.7.2-2.8 1-1.2 1-1.5 0-1.5-.9 0-1-.3-.1-1.3.8-1 .7-1.7-.1-2.5-.8-.8-.8-1.5.2-2.7 1-1.2 1-1.5 0-1.5-.9 0-.9-.4.1-1.7 1-1.1 1-1.4.2-.9-1.6.9-1.6.1-.2-2.6.8-1.5.8-1.9 0-1.4-1.5 1-1.4-.7.2-2.3 1-1.1 1-1.3 0-.7-1.5.8-1.8-1-.4-1.8 1-.7.9-2.5-.3-4.4-.4-.7-.3-1.9.4-2.6.8-1.1.8-1.5-.1-1.8-.8-.3-1-1.1-.4-2.4 1.2-2.9 1.4-4.5.4-3.8-1.2.7-1.1-.3.2-2.8.8-1.5.8-1.9 0-1.4-1.3.9-1.4-.4-.1-2.4.5-.9.5-1.9-.2-2.7-.7-.9-.7-1.7.2-2.8 1-1.2 1-1.5 0-1.5-.9 0-1-.3-.1-1.3.8-1 .7-1.7-.1-2.5-.8-.8-.8-1.5.1-2.6s.9-1.5 0-1.8c-.8-.3-1-1.1-.4-2.4 1.2-2.8 1.2-3.7.2-5.2-.6-.7-.5-1.7.2-2.6.9-1.1.9-1.5-.1-1.9-1-.3-1.1-.8 0-2.6 1.4-2.4 1.6-4.3.2-2.1-.8 1.3-1 1.3-1-.2 0-.9.4-1.9.9-2.2 1-.7.9-2.5-.3-4.4-.4-.7-.3-1.9.4-2.6.8-1.1.8-1.5-.2-1.9-1-.3-1.1-.8 0-2.6 1.4-2.4 1.6-4.3.2-2.1-.8 1.3-1 1.3-1-.2 0-.9.4-1.9.9-2.2 1-.7.9-2.5-.3-4.4-.4-.7-.3-1.9.4-2.6.8-1.1.8-1.5-.2-1.9-1-.3-1.1-.8 0-2.6 1.4-2.4 1.6-4.3.2-2.1-.8 1.3-1 1.3-1-.2 0-.9.4-1.9.9-2.2 1-.7.9-2.5-.3-4.4-.4-.7-.3-1.9.4-2.6.8-1.1.8-1.5-.2-1.9-1-.3-1.1-.8 0-2.6 1.4-2.4 1.6-4.3.2-2.1-.8 1.3-1 1.3-1-.2 0-.9.4-1.9.9-2.2 1-.7.9-2.5-.3-4.4-.4-.7-.3-1.9.4-2.6.8-1.1.8-1.5-.1-1.8-.7-.2-1-1.1-.6-2.1s.7-2 .7-2.4c0-1.1-69.1-.9-69.8.2zm330.9 308.8c-1 .9-1.1.8-.5-.6.3-1 .9-1.5 1.2-1.2.3.3 0 1.1-.7 1.8zM70 387c0 .5-.2 1-.4 1-.3 0-.8-.5-1.1-1-.3-.6-.1-1 .4-1 .6 0 1.1.4 1.1 1zm253 69.4c0 .3-.4.8-1 1.1-.5.3-1 .1-1-.4 0-.6.5-1.1 1-1.1.6 0 1 .2 1 .4z"/><path d="M133.9 48.7c-.7.7-.6 1.4.1 1.8.6.4.8 1.4.5 2.4-1.2 2.9-1.3 4.6-.2 5.8.6.9.5 1.8-.3 2.8-1 1.2-1 1.5 0 1.5s1 .3.1 1.4c-.9 1-.9 1.6-.1 2.1.6.4.8 1.4.5 2.4-1.2 2.9-1.3 4.6-.2 5.8.6.9.5 1.8-.3 2.8-1 1.2-1 1.5 0 1.5s1 .3.1 1.4c-.9 1-.9 1.6-.1 2.1.6.4.8 1.4.5 2.4-1.2 2.9-1.3 4.6-.2 5.8.6.9.5 1.8-.3 2.8-1 1.2-1 1.5 0 1.5s1 .3.1 1.4c-.9 1-.9 1.6-.1 2.1.6.4.8 1.4.5 2.4-1.2 2.9-1.3 4.6-.2 5.8.6.9.5 1.8-.3 2.8-1 1.2-1 1.5 0 1.5s1 .3.1 1.4c-.9 1-.9 1.6-.1 2.1.6.4.8 1.4.5 2.4-1.2 2.9-1.3 4.6-.2 5.8.6.9.5 1.8-.3 2.8-1 1.2-1 1.5 0 1.5.9 0 .9.4-.1 1.7-1 1.1-1 1.4-.1.9 1.4-.8 1.6.3.2 2.4-.5.9-.5 1.9.2 2.7.7.9.7 1.7-.2 2.8-1 1.2-1 1.5 0 1.5.9 0 .9.4-.1 1.7-1 1.1-1 1.4-.1.9.6-.4 1.2-.3 1.2.1 0 .5-.6 1.5-1.2 2.2-1 1.1-1 1.3 0 .7 1.4-.8 1.7 1 .2 1.9-.5.3-1 1.2-1 1.8 0 .7.4.6 1-.3.8-1.3 1-1.3 1 .1 0 .9-.3 1.9-.7 2.3-1.1 1-1.2 3.7-.2 3 1.2-.7 1.1.7-.1 2.6-.5.9-.5 1.9.2 2.7.7.9.7 1.7-.2 2.8-1 1.2-1 1.5 0 1.5.9 0 .9.4-.1 1.7-1 1.1-1 1.4-.1.9.6-.4 1.2-.3 1.2.1 0 .5-.6 1.5-1.2 2.2-1 1.1-1 1.3 0 .7 1.4-.8 1.7 1 .2 1.9-.5.3-1 1.2-1 1.8 0 .7.4.6 1-.3.8-1.3 1-1.3 1 .1 0 .9-.3 1.9-.7 2.3-1.1 1-1.2 3.7-.2 3 1.2-.7 1.1.3-.1 2.6-.7 1.3-.7 2.1 0 2.5.6.4.7 1.1.4 1.7-.5.7-.2.8.6.3 1-.6 1.2-.4.7.9-.4 1-.3 1.5.3 1.1.6-.3 1 .1 1 .9 0 .9.5 1.6 1.1 1.6.6 0 .8.7.5 1.6-.3.8-.2 1.3.2 1.1.4-.3 1.2.1 1.9.8 1 1.1 1 1.5 0 1.8-.7.3-.4.6.7.6 1.2.1 1.6.6 1.3 1.6-.4.8-.1 1.7.5 2.1.7.5.8.2.3-.7-.4-.8.1-.5 1.2.6 1.6 1.5 1.8 2.3.9 3.4-.8 1.1-.8 1.3.2.7.6-.4 1.2-.2 1.2.3 0 .6.4 1 .9.8.5-.1.9 0 .8.3-.1.3 1.1 1.7 2.6 3.3 1.6 1.5 2.5 3.2 2.1 3.9-.4.6-.3.8.4.5 1.3-.9 6.5 5.2 5.8 6.9-.3.8 0 1.1.9.8.8-.3 1.6.3 2 1.5.4 1.2 1.1 1.8 1.7 1.5.7-.5.9-.1.5.9-.3.9-.3 1.6.1 1.5.4-.1 1.5.2 2.5.7 1.5.6 1.6 1 .5 1.6-1 .7-1.1.9 0 .9.7 0 1 .4.7 1-.4.6.1.7 1.1.3 1.3-.5 1.6-.3 1.1 1-.4 1.1-.2 1.4.7 1.1.8-.3 1.7 0 2.2.7.4.8.3 1-.4.5-.8-.4-1-.2-.6.8.3.8 1.2 1.2 2 .9 1-.4 1.7.2 2.1 1.6.3 1.1 1 2.1 1.5 2.1s.7.4.4.9c-.4.5.4.7 1.6.4 1.3-.3 2-.2 1.6.2-.5.5.2 1.3 1.5 1.9 1.2.7 2.2 2.1 2.2 3.1 0 1.2.7 2 1.7 2 .9 0 2.5 1 3.6 2.2 1 1.3 2.2 2 2.6 1.6.3-.3.6-.1.6.6s.5.9 1.3.5c.7-.5.6 0-.3 1.1-1.4 1.7-1.4 1.8.9.6 1.6-.9 2.1-.9 1.6-.2-.9 1.6 1.3 4.1 3.6 4.1 1.1 0 1.9.7 1.9 1.7 0 .9.3 1.3.6 1 1.1-1.1 6.5 3.3 5.7 4.6-.4.7.2.5 1.2-.3 1.1-.9 1.6-1 1.1-.3-1.2 2.1.3 3.6 2.2 2.1 1.3-1.1 1.5-1.1 1 .3-.5 1.1-.1 1.6 1 1.5.9 0 1.6.5 1.4 1.2-.1.6.1 1.1.5 1.1 2-.3 3.4.2 2.8 1-.3.5 0 1.3.6 1.7.8.5.9.3.4-.6-.5-.8-.3-1.1.6-.8.8.3 1.3 1 1.2 1.6-.2.7.4.9 1.4.5 1-.4 1.4-.2 1 .4-.5.7 0 .9 1.3.6 1.3-.4 2 0 2 1 0 .8.7 1.8 1.6 2.1.8.3 1.2.2.9-.4-.3-.5.7-.2 2.4.7 1.6 1 2.7 2.2 2.4 2.7-.3.5-.2.7.3.4 1.4-.9 5.6 1 4.9 2.2-.3.5 0 .7.8.4.8-.3 1.8 0 2.3.7.5.8.3 1-.7.4-.8-.5-1.1-.5-.7 0 .4.4 2.2.9 3.9 1 1.9.2 3.9 1.2 4.8 2.4 1.4 1.8 1.9 1.9 3 .9 1.1-1.1 1.2-1 .6.1s-.4 1.3.9.8c1.4-.6 1.7-.3 1.2.8-.4 1.3-.2 1.4 1.4.5 1.6-.8 2-.8 2 .4 0 1 .6 1.3 1.7.9 1-.4 1.4-.2 1 .4-.5.7.1.9 1.5.5 1.4-.3 1.9-.1 1.4.6-.5.8-.1 1 1 .5 1-.3 1.5-.2 1.2.3-.4.5.4 1 1.5 1.1 3.4.4 5 .8 7.3 2.1 1.2.6 2.4.8 2.8.5.3-.3.6.2.6 1.3 0 1 .4 1.5.8.9 1-1.4 3.2-1.7 3.2-.5 0 .5 1 1.4 2.3 2 2.2 1.1 2.2 1.1.2-.6-1.8-1.5-1.8-1.6-.2-1 1 .3 2.3.6 2.8.6.6 0 .7.4.4 1-.4.6.7 1 2.4 1 1.8 0 3.1.5 3.1 1.2 0 .8.3.9.8.3.9-1.3 3.5-1.9 2.8-.6-.3.5.1 1.1.9 1.5.8.3 1.7 0 2.1-.6.5-.8 1-.7 1.8.3.6.8 2.2 1.5 3.6 1.5 1.4.1 3.5.2 4.8.3 1.3 0 2.1.4 1.9.8-.3.5 1.1.8 3.1.9 3.4.1 9.7 1 9.7 1.4 0 .1 2.8.3 6.2.5 3.5.1 6.9.8 7.7 1.4 1 .8 1.6.9 2.1.1.9-1.4 2.8-1.3 1.9.2-.6 1-.4 1 .7 0 1.7-1.6 3.2-1.6 2.3 0-.6 1-.5 1 .7.1 1.5-1.2 5.9-1.4 5.9-.2 0 .4.7 1 1.6 1.3.8.3 1.3.2 1-.3-.3-.5.8-.8 2.4-.7 1.7 0 3 .4 3 .8 0 .5.5.8 1.1.8.5 0 .7-.4.4-1-.3-.5-.1-1 .4-1 .6 0 1.1.6 1.1 1.2 0 .9.3.9.8.2 1.3-1.9 4.4-2.5 6-1.2 1.1.9 1.3.9.9.1-.5-.7.1-1.3 1.5-1.5 1.3-.2 2.3-.8 2.3-1.3 0-.6.4-1.6.9-2.4.6-1 .5-1.2-.2-.7-1.6 1-1.5-.7.1-2.3 1-1.1 1-1.3 0-.7-1.5.8-1.8-1-.3-1.9.6-.3 1-1.2 1-1.8 0-.7-.4-.6-1 .3-.8 1.3-1 1.3-1-.1 0-.9.3-1.9.7-2.3 1.1-1 1.2-3.7.2-3-1.2.7-1.1-.7.1-2.6.5-.9.5-1.9-.2-2.7-.7-.9-.7-1.7.2-2.8 1-1.2 1-1.5 0-1.5-.9 0-.9-.4.1-1.7 1-1.1 1-1.4.2-.9-.7.4-1.3.3-1.3-.1 0-.5.6-1.5 1.3-2.2 1-1.1 1-1.3 0-.7-1.5.8-1.8-1-.3-1.9.6-.3 1-1.2 1-1.8 0-.7-.4-.6-1 .3-.8 1.3-1 1.3-1-.1 0-.9.3-1.9.7-2.3 1.1-1 1.2-3.7.2-3-1.2.7-1.1-.7.1-2.6.5-.9.5-1.9-.2-2.7-.7-.9-.7-1.7.2-2.8 1-1.2 1-1.5 0-1.5-.9 0-.9-.4.1-1.7 1-1.1 1-1.4.2-.9-1.6.9-1.6.1-.2-2.6.8-1.5.8-1.9 0-1.4-1.3.9-1.4-.4-.1-2.4.5-.9.5-1.9-.1-2.6-1-1.3-.9-3.5.3-4.4.4-.3-1.9-.5-5-.5-3.8 0-6.1.5-7 1.5-1.2 1.3-1.3 1.3-.6 0 .7-1.3.5-1.3-.9-.1-1.4 1.1-1.7 1.1-1.7 0s-.2-1.1-1 .1c-.5.8-1 1-1 .4 0-.7-.9-1.4-2-1.7-1.1-.3-2-.1-2 .4 0 .6-.8.5-2-.1s-2-.7-2-.1-1.1.6-3 .1c-1.6-.5-3-.5-3-.1 0 .3-.9.7-2 .7s-1.9-.5-1.7-1.1c.3-.6-1.4-1-4.2-1.1-2.5 0-6.8-.4-9.6-.9-2.7-.4-5.6-.8-6.2-.8-.7 0-1.3-.4-1.3-.8s-1.1-.6-2.4-.3c-1.7.3-2.8-.2-3.5-1.3-.7-1.2-1-1.4-1.1-.4 0 1.1-.3 1.1-1.7 0-1.4-1.2-1.6-1.2-.9.1.4.8-.3.4-1.5-1-1.8-2-2.1-2.1-1.5-.6.7 2 .7 2-1.5 0-1.2-1-1.9-1.3-1.4-.5.5.9.3 1.2-.6.9-.8-.3-1.3-1-1.2-1.5.1-.5-.4-1-1.2-1-.8 0-1.2.5-.9 1.1.3.6-.4 0-1.5-1.3-1.9-2.1-2.1-2.1-2.1-.5 0 1.4-.2 1.6-.9.6-.4-.8-1.2-1.4-1.7-1.5a.8.8 0 0 1-.6-1.1c.2-.5-.3-.4-1 .2-1.1.8-1.7.7-2.6-.8-.7-1.1-2-1.7-3.2-1.5-1.1.2-2 0-2-.6 0-.5-.3-.8-.7-.8-.5.1-1.1 0-1.5-.1-1.2-.4-2.7-.7-3.8-.9-.5 0-1.9-1.1-3.1-2.4-1.2-1.2-1.9-1.6-1.5-1 .4.7.2 1.3-.3 1.3-.6 0-1.1-.8-1.1-1.8 0-1.4-.2-1.5-1-.2-.7 1.2-1 1.2-1 .1 0-.7-.6-1.1-1.5-.7-.8.3-1.5.2-1.5-.2 0-.5-.7-1.7-1.6-2.8-.8-1-1.3-1.3-.9-.7.4.8 0 1.3-1 1.3-1.1 0-1.5-.5-1.1-1.6.3-.8.2-1.3-.3-.9-1.4.8-6.3-1.4-5.6-2.5.4-.6.3-1-.2-.9-2.1.4-3.4-.2-2.7-1.3.5-.8.2-.9-.9-.5-1 .3-1.7.2-1.7-.4 0-.6-.5-.7-1.2-.3-.8.5-.9.2-.5-.9.3-.9.1-1.9-.5-2.3-.7-.4-.8-.3-.4.4 1.1 1.9-.5 1.4-2.1-.6-.8-1-1.1-1.1-.7-.2.7 1.3.6 1.3-1 .1-1.3-1.1-1.4-1.6-.4-2.3.9-.5.5-.7-1.2-.6-1.6.2-2.4-.2-2.2-1 .1-.8-.2-1.1-.8-.7-.5.3-1 .1-1-.6s-.3-1-.6-.6c-.3.3-1.6-.4-2.8-1.7-1.7-1.8-1.8-1.8-.6-.1 1.2 1.6 1 1.5-1.2-.4-1.5-1.3-2.5-2.9-2.1-3.4.4-.7 0-.8-1.1-.4-1.4.6-1.7.3-1.2-.8.3-.9.2-1.4-.3-1.1-1 .7-3.3-1.8-2.5-2.7.3-.3-.4-.3-1.7 0-1.2.3-2 .2-1.7-.3.7-1.1-1.7-3.5-2.6-2.7-.3.4-.6 0-.6-.9 0-.8-1.1-2.1-2.5-2.8-1.4-.7-2.3-1.5-2-1.8.6-.6-1.6-2.7-3.7-3.5-1-.3-1.5-1.2-1.2-2 .3-.8-.2-1.7-1.1-2.1-.9-.3-1.3-1-1-1.6.3-.6-.1-.7-.9-.4-.9.3-1.6.2-1.6-.4 0-.6.5-1.2 1.2-1.4.7-.3.5-.7-.6-1.1-1.2-.5-1.5-.3-1 .6.4.6-.2.3-1.4-.7-1.2-1.1-2.2-2.5-2.2-3.3 0-.7-.5-1.3-1.1-1.3-.6 0-.8-.7-.5-1.7.4-1 .4-1.4 0-1.1-1.2 1.3-4.5-2.8-3.8-4.8.5-1.6.4-1.6-.5-.4-1 1.5-1.3 1.1-1.5-2-.1-.8-.7-1.5-1.3-1.5-1.7 0-4.6-4.2-3.8-5.5.3-.6.1-1-.4-1-.6 0-1.1-.7-1.1-1.6 0-.8-.4-1.3-.9-1-1.1.7-2.3-2.2-1.4-3.6.4-.7.1-.8-.7-.3-1 .6-1.2.4-.7-.9s.1-1.9-1.3-2.3c-1.6-.4-1.8-.8-.9-1.9 1-1.2.9-1.3-.5-.8-1.1.4-1.6.1-1.6-1.1 0-.9.5-1.3 1.1-.9.8.4.8 0 0-1.5-1.4-2.5-2.3-2.8-1.4-.4.5 1.1.3 1.4-.6.8-.7-.4-1.1-1.8-.8-3.1.2-1.4 0-2.7-.6-3.1-.6-.4-.7-.1-.2.7.6.9.4 1.1-.4.5-.7-.4-1-1.6-.8-2.7.3-1.1 0-2.1-.9-2.5-.8-.3-1.4-1.4-1.4-2.5s-.4-1.6-1.1-1.2c-.8.5-.8.1 0-1.4s.8-2.3-.1-2.8c-.7-.5-.8-.3-.3.6.6.9.4 1.1-.4.6-.7-.5-1-1.4-.7-2.2.3-.8 0-1.4-.5-1.4-.7 0-.9-1.1-.7-2.5.3-1.3.2-2.2-.3-2-.4.3-1 .1-1.4-.5-.3-.5 0-1 .7-1 .8 0 .6-.5-.4-1.1-1-.5-1.8-1.5-1.8-2.1 0-.6.5-.7 1.3-.2.7.5.5.2-.5-.8-1.8-1.6-2.5-3.3-1-2.4.5.3.9-.1.9-.9s-.5-1.3-1-1.2c-1.4.3-2.9-5.6-1.6-6.4.7-.4.4-.9-.6-1.3-1.2-.4-1.6-1.4-1.3-3.1.3-1.5.1-2.2-.5-1.8-.6.4-.8-.2-.5-1.5.4-1.2.3-2.4-.2-2.7-.4-.3-.7-2.1-.5-4 .1-1.9-.1-3.5-.5-3.5s-.8-1.8-.9-4c-.2-5.9-.4-7-1.1-7-.3 0-.6-.9-.6-2s.3-2 .6-2 .6-.9.6-2-.5-2-1-2c-.6 0-.5-.5.2-1.2s1.2-1.7 1.2-2.3c0-.5-.5-.3-1 .5-.8 1.2-1 1-1.1-1-.1-1.4-.1-2.7-.1-3 .1-1.1-26-.5-26.9.7z"/><path d="M193.6 48.7c-.3.7.2 1.9 1 2.8.9.8 1.2 1.5.7 1.5-.4 0-.8 2.9-.8 6.4 0 4.4.4 6.2 1.2 5.9 1.3-.5 1.2 2.9-.2 3.9-.6.5-.5.8.2.8s1 .7.6 1.7c-.4.9-.2 1.4.3 1.1.5-.4 1 .5 1 1.8.1 1.3-.2 2.1-.7 1.8-.5-.3-.6.2-.3 1 .3.9 1.1 1.6 1.6 1.6.6 0 .4.8-.3 1.7-.8.9-.9 1.4-.3 1 .7-.4 1.5 0 1.8.9.4 1 .2 1.3-.7.7-.6-.4-.4.6.7 2.1 1.8 2.8 1.8 2.9 0 2.3-1.8-.7-1.8-.6-.2.6 1.4 1.1 1.5 1.6.5 2.6-.9 1-.8 1.1.5.6 1.3-.5 1.6-.1 1.4 1.9-.2 1.4.1 2.3.6 1.9.6-.3.7.3.3 1.7-.5 1.7-.4 2.1.6 1.5.9-.6 1.1-.3.6.8-.4 1-.2 1.7.4 1.7.6 0 .9.9.6 2-.3 1.3-.1 1.8.6 1.3.7-.4.8 0 .4 1.1-.5 1.1-.3 1.5.5 1 .7-.5.9 0 .5 1.5s.1 2.4 1.5 3.2c1.7.9 1.8 1.3.7 2s-1 .9.5.9c1.6 0 1.7.2.5 1.7s-1.2 1.6.3 1c1-.3 1.7-.3 1.6.1-.1.4 1 3.1 2.6 6.1 1.5 2.9 2.1 5 1.4 4.6-.7-.4-.2.3 1.2 1.5s1.8 1.8 1 1.4c-.8-.4-.2.5 1.3 2 1.6 1.4 2.7 3.2 2.4 3.9-.2.6.6 1.7 1.7 2.2 2.3 1.1 2.8 3.5 1.1 4.8-.5.5.1.5 1.4.2 1.8-.6 2.3-.4 1.9.6-.5 1.5 2.6 5.1 3.6 4.2.3-.3.4.4.1 1.5-.3 1.6 0 1.9 1.2 1.5 1.1-.4 1.4-.2.9.5-.4.7-.2 1.2.6 1.2 1.8.1 5.1 4.8 4.4 6.5-.3 1 0 1.2 1.1.8 1.1-.4 1.4-.2.9.5-.5.8-.1 1 1.1.5 1-.3 1.5-.3 1.1.1-.4.5.5 1.9 2 3.3s2.6 2.9 2.5 3.4c-.3.9.2 1.1 3 1.3 1.5.1 4.7 3.2 4.7 4.6 0 .5.7 1 1.5 1 .7 0 1.8.6 2.2 1.4.4.8 2.7 2.4 5.1 3.6 2.4 1.3 5.9 3.7 7.8 5.5 1.9 1.8 3.4 2.7 3.4 2.1 0-.6.7 0 1.6 1.2.8 1.2 2 2 2.5 1.7.5-.4.9-.1.9.5s.5.8 1 .5c.6-.3 1-.1 1 .4 0 .6.3 1 .8.9.4-.1 2.2.6 4 1.5 1.7 1 3.2 1.4 3.2 1 .1-.5.8.3 1.6 1.7.9 1.4 1.3 1.7 1 .7-.5-1.4.5-1 3.6 1.4 2.4 1.9 3.7 2.6 2.9 1.6-1.2-1.5-1.2-1.7.2-1.1.8.3 1.8 1.2 2.1 1.9.3.8 1.3 1.1 2.7.8 1.5-.4 2-.3 1.5.5-.4.8-.2 1 .7.6.8-.3 1.8 0 2.2.5.3.6 1.1.9 1.6.6.5-.4.9-.2.9.4 0 .5 1.1.8 2.4.5 1.4-.2 2.8 0 3.1.6.4.6 1.1.8 1.6.5.5-.4.9 0 .9.8 0 .7.7 1.4 1.5 1.4s1.1-.5.8-1c-.4-.7.1-.7 1.3-.3 1 .5 2.5.9 3.2.9.7 0 1 .7.7 1.5-.4 1.2-.3 1.3 1 .2 1.1-.9 1.5-.9 1.5-.1 0 .7.5.9 1.3.4 1.9-1.2 3.6-1.2 4.4-.1.4.7.1.8-.8.3-.8-.5-1-.4-.6 0 1.1 1.3 3.7 1.5 3.7.3 0-.6.7-.4 1.7.3 1.1.9 1.4 1 .9.2-.5-.9-.2-1.1.8-.7.9.3 1.3 1.1 1 1.6-.4.6.3.5 1.5-.1 1.6-.9 2.1-.9 2.1.1 0 .8.3.9.8.3.4-.6 1.4-.9 2.2-.9.8.1 2.1.2 2.8.3.7 0 1.1.4.9.8-.9 1.5 6.8.8 8.1-.7 1.2-1.3 1.3-1.3.6 0-.7 1.3-.5 1.3.9.1 1.3-1 1.7-1 1.7-.1 0 1 .3 1 1.5 0s1.5-1 1.5.1c0 .9.3 1 .8.4 1.1-1.5 3.2-1.7 3.2-.3 0 .9.4.8 1-.2.9-1.3 1.1-1.3 1.9 0 .9 1.2 1.1 1.2 1.7-.3.3-.9.9-1.5 1.3-1.3.4.3 1.3.1 2.1-.5 1.2-.7 1.2-.9.1-.9-1.1 0-1.1-.3 0-1.7 1-1.1 1-1.4.2-.9-1.5.8-1.7-.3-.3-2.4.5-.9.5-1.9-.2-2.7-.7-.9-.7-1.7.2-2.8 1-1.2 1-1.5 0-1.5-.9 0-.9-.4.1-1.7 1-1.1 1-1.4.2-.9-.7.4-1.3.3-1.3-.1 0-.5.6-1.5 1.3-2.2 1-1.1 1-1.3 0-.7-1.5.8-1.8-1-.3-1.9.6-.3 1-1.2 1-1.8 0-.7-.4-.6-1 .3-.8 1.3-1 1.3-1-.1 0-.9.3-1.9.7-2.3 1.1-1 1.2-3.7.2-3-1.2.7-1.1-.7.1-2.6.5-.9.5-1.9-.2-2.7-.7-.9-.7-1.7.2-2.8 1-1.2 1-1.5 0-1.5-.9 0-.9-.4.1-1.7 1-1.1 1-1.4.2-.9-.7.4-1.3.3-1.3-.1 0-.5.6-1.5 1.3-2.2 1-1.1 1-1.3 0-.7-1.5.8-1.8-1-.3-1.9.6-.3 1-1.2 1-1.8 0-.7-.4-.6-1 .3-.8 1.3-1 1.3-1-.1 0-.9.3-1.9.7-2.3 1.1-1 1.2-3.7.2-3-1.2.7-1.1-.7.1-2.6.5-.9.5-1.9-.2-2.7-.7-.9-.7-1.7.2-2.8 1-1.2 1-1.5 0-1.5s-1-.3-.1-1.4c.9-1.1.9-1.6 0-2.2-.7-.4-.9-.3-.6.3.4.6 0 1.3-.8 1.7-.8.3-1.7.1-2.1-.5-.4-.6-1.1-.6-2 .2-.7.6-2.1.8-3 .5-.9-.4-2.3-.1-3 .5-.8.6-2.1.8-3.1.4-2.8-1.2-4.4-1.4-3.7-.4.6 1.1-.9 1.2-2 .2-1-1.1-3.7-1.2-3-.2.7 1.2-3.9.7-4.8-.6-.5-.6-.8-.5-.8.3 0 .9-.8.9-3.1-.4-1.7-.8-2.9-1.1-2.5-.6.3.5-.6.7-2 .4-1.9-.3-2.2-.7-1.2-1.3 1.9-1.3 0-1.1-2.4.2-1.8 1-2 .9-1.4-.7.6-1.5.4-1.6-.5-.7-1.4 1.4-4.2.5-3.2-1.1.4-.6-.1-.5-1 .3-1.5 1.2-1.7 1.1-1.8-.5 0-1.1-.3-1.4-.5-.7-.3.7-1.2.9-2 .6-.7-.3-1.1-1-.7-1.7.4-.6 0-.5-.9.2-1.4 1.1-1.8 1-2.8-.8-.6-1.2-1.4-1.9-1.7-1.6-.4.3-1.3 0-2.1-.7-1.3-.9-1.4-.9-.8 0 .4.7.3 1.3-.2 1.3-.6 0-1.3-.7-1.6-1.6-.3-.8-1-1.3-1.6-.9-.5.3-1.9.1-3-.5-1.8-1-1.9-1.4-.8-2.7 1.2-1.5 1.1-1.5-.9-.5-1.3.7-2.4.8-2.7.3-.4-.5 0-1.2.6-1.5.7-.3.3-.3-.9 0-1.7.4-2.3.1-2.3-1.2 0-1-.3-1.4-.7-1-.4.3-1.3-.4-2.1-1.6-.9-1.6-1.2-1.7-.7-.4.5 1.6.3 1.7-1 .6-.8-.7-1.2-1.7-.8-2.3.3-.6.1-.7-.6-.3-.7.5-2.1-.2-3.4-1.6-1.3-1.4-2.9-2.2-3.7-2-1.3.5-1.3.3 0-1.3 1-1.3 1.1-1.6.2-1.1-1.5.9-5.2-2-5.2-4.1 0-.8-.5-1.1-1.2-.7-.8.5-.9.2-.5-.9.3-.9.2-1.6-.3-1.4-1.4.4-8.1-7.5-7.6-9 .3-.8.2-1.2-.3-.9-.9.6-5.5-5.3-4.7-6.1.3-.3-.2-1.2-1-2s-1.2-1.9-.9-2.4c.4-.5.1-.9-.5-.9s-.9-.4-.6-.9c.4-.5.1-1.1-.4-1.3-.6-.2-1.2-1.3-1.3-2.5 0-1.2-.4-2.1-.7-2.1-1.8.2-2.1-.4-1-1.7 1-1.2.9-1.6-.3-2.1-.9-.3-1.8-1.3-2.1-2.1-.5-1.2-.3-1.3.7-.7.7.5.5.2-.5-.8-1.9-1.7-2.5-3.3-.9-2.4 1.1.7.8-2.1-.4-3.1-.4-.5-.5-.1 0 .7.5.9.5 1.2-.1.7-1.2-1.2-1.2-3 .1-3.9.5-.4.1-.8-1-.8-1.7 0-1.7-.2-.5-1 1-.6 1.1-1 .3-1-.7 0-1.3-.7-1.3-1.6 0-.9.5-1.3 1.3-.9.6.4.4 0-.5-.8-1.2-.9-1.4-1.7-.7-2.4.8-.8.7-1.3 0-1.7-.6-.4-1.1-1.2-1.1-1.7 0-.6.4-.8.8-.5.5.3.9-.1.9-.9s-.4-1.3-.8-1.2c-.6.2-1.1-.7-.8-1.6 0-.1.2-1.3.5-2.7.3-2 .2-2.2-.7-1-.9 1.2-1 1.2-.6-.5.4-2-.1-2-31.9-2-24.6 0-32.5.3-32.8 1.2z"/><path d="M292.9 48.2c-.3 3 0 7.6.6 9 .4.9.4 2.2 0 2.8-.3.5-.1 1 .6 1 .6 0 .9.8.6 2-.3 1.1-.1 2.3.5 2.6.5.3.8 1.5.5 2.5-.3 1.1-.1 1.7.3 1.4.5-.3 1.1-.1 1.5.5.3.5 0 1-.7 1-.9.1-.7.5.4 1.4 1.4 1 1.5 1.5.5 2.6-1 1-.9 1.1.2.5 1.1-.6 1.3-.4.8.8-.4 1.2-.2 1.4 1.1 1 1.5-.6 1.6-.5.2 1.2-.9 1.1-1 1.6-.2 1.1.7-.4 1.2-.1 1.2.9 0 .9.4 1.4.9 1.1.5-.3 1.2.1 1.5 1 .3.8.2 1.2-.4.9-.6-.3-.7.1-.4.9.3.9 1 1.4 1.4 1.1 1.2-.8 3.3 2.3 2.4 3.6-.4.7-.3.9.3.6 1.5-.9 5.7 3.9 4.8 5.4-.5.8-.4 1 .4.5.7-.5 2.3.4 3.9 2.1 1.5 1.5 2.3 2.5 1.7 2.1-.5-.5-1.3-.8-1.9-.8-.5 0-.1.6.9 1.4 1.1.8 2.6 1.1 3.4.8.9-.3 1.2-.1.7.6-.5.8 0 1.2 1.4 1.2 1.3 0 2.4.9 3 2.5.5 1.4 1.2 2.5 1.4 2.5.3 0 .3-.7-.1-1.6-.6-1.5-.4-1.5 1.9 0 1.3.9 2.8 1.3 3.3.9.4-.5.5-.2.1.4-.5.9 0 1.3 1.4 1.3 1.2 0 1.8.4 1.5 1-.3.6.1.7.9.4.9-.3 1.6-.2 1.6.4 0 .6 1 .8 2.2.4 1.4-.3 1.9-.1 1.4.6-.4.8-.2 1 .7.6.8-.3 1.8-.1 2.1.4.3.5 2.1.8 4.1.5 1.9-.2 3.5 0 3.5.4 0 .5 4 .8 8.9.8s8.7-.3 8.5-.6c-.2-.4.8-.7 2.1-.8 1.4-.1 3.6-.2 5-.3 1.3-.1 2.7-.8 3-1.6.2-.7 0-1-.5-.7-1.2.8-1.3-.5 0-2.5.5-.9.5-1.9-.2-2.7-.7-.9-.7-1.7.2-2.8 1-1.2 1-1.5 0-1.5-.9 0-.9-.4.1-1.7 1-1.1 1-1.4.2-.9-1.7.9-1.7-.6 0-2.3 1-1.1 1-1.3 0-.7-1.5.8-1.8-1-.3-1.9.6-.3 1-1.2 1-1.8 0-.7-.4-.6-1 .3-.8 1.3-1 1.3-1-.1 0-.9.3-1.9.7-2.3 1.1-1 1.2-3.7.2-3-1.2.7-1.1-.7.1-2.6.5-.9.5-1.9-.2-2.7-.7-.9-.7-1.7.2-2.8 1-1.2 1-1.5 0-1.5-.9 0-.9-.4.1-1.7 1-1.1 1-1.4.2-.9-.7.4-1.3.3-1.3-.1 0-.5.6-1.5 1.3-2.2 1-1.1 1-1.3 0-.7-1.5.8-1.8-1-.3-1.9.6-.3 1-1.2 1-1.8 0-.7-.4-.6-1 .3-.8 1.3-1 1.3-1-.1 0-.9.3-1.9.7-2.3 1.1-1 1.2-3.7.2-3-1.2.7-1.1-.7.1-2.6.5-.9.5-1.9-.2-2.7-.7-.9-.7-1.7.2-2.8 1-1.2 1-1.5 0-1.5-.9 0-.9-.4.1-1.7 1.2-1.4 1.2-1.5 0-.9-1 .6-1.2.4-.7-1 .6-1.8-.8-1.9-41.9-1.9-23.4 0-42.5.3-42.6.7z"/><path d="M307.1 91.3c.2.1 1.3.9 2.4 1.7 1.9 1.4 1.9 1.4.6-.3-.7-.9-1.8-1.7-2.4-1.7-.6 0-.8.1-.6.3zM273.7 99.1c.7.7 1.5 1 1.8.7.3-.3-.2-.9-1.2-1.2-1.4-.6-1.5-.5-.6.5zM288 117.4c0 .2.8 1 1.8 1.7 1.5 1.3 1.6 1.2.3-.4s-2.1-2.1-2.1-1.3zM210 119.4c0 .2.8 1 1.8 1.7 1.5 1.3 1.6 1.2.3-.4s-2.1-2.1-2.1-1.3zM222 139.4c0 .2.7.7 1.6 1 .8.3 1.2.2.9-.4-.6-1-2.5-1.4-2.5-.6zM193.7 152.1c.7.7 1.5 1 1.8.7.3-.3-.2-.9-1.2-1.2-1.4-.6-1.5-.5-.6.5zM236 156.9c0 .6.4 1.3 1 1.6.6.3.7-.1.4-.9-.7-1.8-1.4-2.1-1.4-.7zM155 214.1l2.9 2.9c1.2 1.2 1.1 1 0-.9-.9-1.4-2.2-2.7-3-2.9-1.1-.3-1.1-.2.1.9zM133.8 238.7c1.3.5 1.7 6.5.5 7.7-1.1 1-1.2 3.7-.2 3 1.2-.7 1.1.7-.1 2.6-.5.9-.5 1.9.2 2.7.7.9.7 1.7-.2 2.8-1 1.2-1 1.5 0 1.5.9 0 .9.4-.1 1.7-1 1.1-1 1.4-.1.9.6-.4 1.2-.3 1.2.1 0 .5-.6 1.5-1.2 2.2-1 1.1-1 1.3 0 .7 1.4-.8 1.7 1 .2 1.9-.5.3-1 1.2-1 1.8 0 .7.4.6 1-.3.8-1.3 1-1.3 1 .1 0 .9-.3 1.9-.7 2.3-1.1 1-1.2 3.7-.2 3 1.2-.7 1.1.7-.1 2.6-.5.9-.5 1.9.2 2.7.7.9.7 1.7-.2 2.8-1 1.2-1 1.5 0 1.5.9 0 .9.4-.1 1.7-1 1.1-1 1.4-.1.9.6-.4 1.2-.3 1.2.1 0 .5-.6 1.5-1.2 2.2-1 1.1-1 1.3 0 .7 1.4-.8 1.7 1 .2 1.9-.5.3-1 1.2-1 1.8 0 .7.4.6 1-.3.8-1.3 1-1.3 1 .1 0 .9-.3 1.9-.7 2.3-1.1 1-1.2 3.7-.2 3 1.2-.7 1.1.7-.1 2.6-.5.9-.5 1.9.2 2.7.7.9.7 1.7-.2 2.8-1 1.2-1 1.5 0 1.5.9 0 .9.4-.1 1.7-1 1.1-1 1.4-.1.9.6-.4 1.2-.3 1.2.1 0 .5-.6 1.5-1.2 2.2-1 1.1-1 1.3 0 .7 1.4-.8 1.7 1 .2 1.9-.5.3-1 1.2-1 1.8 0 .7.4.6 1-.3.8-1.3 1-1.3 1 .1 0 .9-.3 1.9-.7 2.3-1.1 1-1.2 3.7-.2 3 1.2-.7 1.1.7 0 2.5-.6 1-.5 2.2.5 3.5.8 1.1 1.4 2.5 1.4 3.1 0 .5-.5.3-1-.5s-1-1.1-1-.6c0 1 5 5.8 5 4.8 0-.4.6 0 1.3.9.7.9 2.2 1.9 3.5 2.3 1.2.4 2 1.1 1.7 1.5-.2.5 1.3 1.6 3.5 2.6s3.7 2.1 3.5 2.6c-.3.4.3 1 1.4 1.4 1.1.3 2.6 1.6 3.5 3 .9 1.4 2.2 2.2 3.3 1.9 2-.5 7.7 3.9 6.6 5-.4.4 0 .4.9.1 1-.4 2.5.2 4 1.7 1.3 1.3 2.7 2.2 3.1 2 .4-.1 1.5.5 2.3 1.3.9.8 2.1 1.2 2.7.8.6-.4.8 0 .4 1-.4 1.2-.2 1.4 1 1 1.2-.5 1.4-.3.8.7-.6 1-.3 1.2 1.3.8 1.2-.4 2.6 0 3.3.8.6.8 1.8 1.4 2.6 1.4s1.1.5.7 1.2c-.4.6-.3.8.4.4.6-.3 1.4-.1 1.7.5.4.5 1.3.8 2 .5.8-.3 1.9.3 2.7 1.2 1.2 1.6 1.1 1.6-.7.2-1.7-1.2-1.8-1.2-.7 0 .7.8 1.7 1.6 2.2 1.6.6.1 1.2.3 1.5.4.3.1 1 .4 1.5.5.6.1 1.1.3 1.3.5.1.1 1.6.4 3.2.6 4.5.7 5.7 1.3 5 2.5-.4.6.1.5 1.3-.2 1.6-1 2.4-1 4.4.3 1.6 1.1 3 1.3 3.9.7 1.8-1.1 3.2-1.1 2.5 0-.7 1 1.3.9 3-.2 1.8-1.1 7.5.3 6.7 1.7-.3.6 0 .6.8-.2 1.7-1.6 3.2-1.6 2.3 0-.5.9-.2.8 1-.1 1.4-1.2 1.9-1.2 2.9-.1 1 1 .9 1.1-.2.5-.9-.5-1.2-.4-.7.3.6 1 4.3.9 5.4-.3.3-.2 1.1 0 1.9.6.7.6 1.3.7 1.3.2 0-.5.7-1 1.5-1s1.5.5 1.5 1.1c0 .6.4.5.9-.3.6-.9 1.1-1 1.5-.2.5.8 1.3.8 2.7.1 1.4-.8 1.9-.7 1.9.2 0 .9.3.9 1-.2.8-1.2 1-1.2 1-.1 0 1 .3 1.1 1.3.2 1-.8 1.7-.7 2.7.2 1 .9 1.1.9.6-.1-.4-.6-.2-1.2.3-1.2.6 0 1.1.4 1.1.8 0 .5.7.9 1.5.9s1.1-.5.8-1c-.3-.5 0-.7.8-.5.8.3 2.4.1 3.7-.3 1.4-.6 3.1-.5 4.4.2 1.5.8 1.9.8 1.4 0-.8-1.3 2.1-1 4.3.3.9.6 1.2.5.7-.2-.9-1.5 1.2-2.6 2.8-1.3.9.7 1.6.7 2.4-.1.9-.9 1.2-.9 1.2.1 0 1.1.3 1.1 1.5.1s1.8-1 2.9-.1c1.1.9 1.6.9 2.2 0 .5-.8.3-1-.7-.4-.8.5-1.1.4-.6 0 .4-.5 1.5-.9 2.5-1 .9-.1 2.8-.5 4.1-.9 1.6-.6 2.1-.5 1.7.3-.5.7-.1.9.8.5.9-.3 1.6-1.1 1.6-1.6 0-.6.9-.8 2-.5 1.1.3 2 .1 2-.5 0-.5.4-.7.9-.3.5.3 1.2.1 1.6-.5.3-.6 1.7-.8 3-.6 1.3.3 2.5 0 2.7-.5.2-.6 1.5-1.1 2.9-1.3 1.3-.1 3-.5 3.6-.9.6-.4 1.4-.1 1.6.5.4.8.6.7.6-.4.1-2.1 2.1-2.8 4.3-1.6 1.4.7 1.6.5 1.1-.9-.6-1.6-.5-1.6 1-.4 1.5 1.2 1.7 1.2 1.1-.4-.5-1.2-.4-1.6.3-1.2.6.4 2.1-.1 3.4-1.2 2.6-2 8.9-4.4 8.9-3.4 0 .4.7-.2 1.5-1.3.8-1 1.5-1.5 1.5-.9 0 .5.7-.1 1.6-1.3.9-1.4 2.2-2.1 3.1-1.8.8.3 1.1.2.8-.3-.5-.9 3.2-2.7 4.8-2.3.5.1.6-.2.2-.8-.9-1.5 1.5-4.2 3.2-3.6.9.4 1.1.1.7-.6-.5-.8-.1-.9 1.2-.5 1.7.6 1.7.6.3-.5-1.1-.9-5-1.3-11.7-1.2-5.6 0-10.2-.2-10.2-.6 0-.3-2.3-.5-5.2-.4-3.1.1-6.4-.4-8.1-1.3-1.6-.8-2.6-1-2.3-.4.4.6.2 1.1-.3 1.1-.6 0-1.1-.6-1.1-1.3 0-.9-.2-.9-.9.1-.6 1-1 1-2.1-.3-.7-.8-1.8-1.2-2.4-.7-1.8 1.2-4.6.8-5.6-.8-.6-.9-1-1-1-.3 0 1.4-2.3 1.1-4.3-.5-1-.9-1.7-1-2.2-.2-.9 1.5-2.8 1.2-2.2-.4.6-1.5-.9-1.6-3-.3-1.2.7-1.6.3-1.5-1.3 0-.3-.9-.7-2.1-.7-1.8-.2-1.9 0-.7.8 1.2.9 1.1.9-.5.4-1.1-.5-3.2-1-4.7-1.3-1.6-.2-2.8-.8-2.8-1.2 0-.5-.8-.6-1.9-.3-1 .3-2.2 0-2.5-.6-.4-.5-1.4-.7-2.3-.4-1.1.4-1.4.3-.9-.5.5-.8.2-1-.9-.6-.8.4-2.1.1-2.9-.5-.7-.6-1.6-.8-1.9-.4-.4.3-.7 0-.7-.7s-.3-1-.7-.7c-.3.4-1.3.1-2.1-.6-1.3-1-1.4-.9-.7.3s.6 1.3-.7.3c-.8-.7-1.9-.9-2.3-.5-.5.4-.5-.2-.1-1.3.6-1.6.5-1.7-.5-.8-1 1-1.5.9-2.6-.5-.8-.9-1.2-1.1-.8-.5.9 1.8-2 1.6-3.5-.2-.7-.9-1.8-1.4-2.4-1.2-.6.2-1.7-.3-2.5-1-1.1-1.2-1.5-1.2-2.2-.1-.8 1.2-1.3.4-1-1.4 0-.4-.7-.4-1.6-.1-1.2.5-1.4.3-.8-.7.5-.9.4-1.1-.4-.6-1.6 1-5.3-.3-4.5-1.6.5-.7.1-.9-.9-.5-1 .3-1.7.2-1.7-.4 0-.6-.4-.7-1-.4-1.5.9-9.2-3.4-8.3-4.8.4-.7-.2-.5-1.2.3-1.3 1-1.6 1.1-1.1.2.6-.9.3-1.2-1-1-1.2.2-1.8-.2-1.6-1 .1-.8-.2-1.1-.8-.7-1.1.7-5.3-1.9-4.4-2.8.3-.3-.3-.3-1.5 0-1.3.3-2.1.1-2.1-.8 0-.7-.3-1-.6-.6-.3.3-1.5-.3-2.7-1.3-1.1-1.1-2.4-1.7-2.9-1.4-1.4.9-3.7-1.6-3.1-3.4.4-1.5.3-1.5-.6-.2-1 1.3-1.2 1.3-2.1 0-.5-.8-1-1.1-1-.6 0 .5-.7.3-1.5-.4s-1.2-1.7-.8-2.3c.3-.6.1-.7-.6-.3-1.4.9-6.4-2.1-5.6-3.4.3-.4-.3-.6-1.4-.3-1 .3-2.2-.1-2.6-.8-.6-.8-.4-1 .5-.4.8.5 1.1.4.6-.3-.4-.6-1.2-.9-2-.6-.7.3-2.9-1.1-4.9-2.9-2-1.9-3.7-3.3-3.9-3.2-.2.2-1.7-.9-3.3-2.3-1.7-1.5-2.4-2.3-1.5-1.7 1.3.9 1.3.8.1-.7-.7-1-1.7-1.5-2.2-1.3-1 .7-5.5-3.7-5.1-4.9.2-.5-.3-.4-1.2.3-1.6 1.3-3.2-.1-2.1-1.9.3-.6-.1-1-.9-1s-1.8-.5-2.2-1.2c-.5-.7-.3-.8.6-.3.8.5 1.1.4.6-.3-.4-.6-1.3-.9-2.1-.5-.8.3-1.5 0-1.5-.5 0-.6-.9-1.4-2-1.7-1.1-.3-2-1.5-2-2.6 0-1-.6-1.8-1.2-1.6-.7.1-1.2-.4-1-1.2.2-.8-.3-1.1-1.3-.8-.8.4-1.5.3-1.5-.1s-1.1-1.9-2.4-3.4c-1.4-1.4-2.2-2.9-1.8-3.4.4-.4.2-.4-.4-.1-1.3.7-4.7-3-3.9-4.3.3-.6-.1-.7-.9-.4-.8.3-2.1.2-2.7-.2-.9-.5-.7-1 .7-1.5 1.8-.7 1.8-.8-.2-.8-2.1-.1-6.2-4-8.3-8-.7-1.1-1.7-2.1-2.4-2-.9 0-.9.2.1.6zM160 349c0 .5-.2 1-.4 1-.3 0-.8-.5-1.1-1-.3-.6-.1-1 .4-1 .6 0 1.1.4 1.1 1z"/><path d="M155 258.9c0 .6.4 1.3 1 1.6.6.3.7-.1.4-.9-.7-1.8-1.4-2.1-1.4-.7zM183.7 284.1c.7.7 1.5 1 1.8.7.3-.3-.2-.9-1.2-1.2-1.4-.6-1.5-.5-.6.5zM247.7 287.1c.7.7 1.5 1 1.8.7.3-.3-.2-.9-1.2-1.2-1.4-.6-1.5-.5-.6.5zM191.7 290.1c.7.7 1.5 1 1.8.7.3-.3-.2-.9-1.2-1.2-1.4-.6-1.5-.5-.6.5zM275.7 299.1c.7.7 1.5 1 1.8.7.3-.3-.2-.9-1.2-1.2-1.4-.6-1.5-.5-.6.5zM376 312c-.8.5-1 1-.5 1 .6 0 1.7-.5 2.5-1s1.1-1 .5-1c-.5 0-1.7.5-2.5 1zM161.1 351.3c.2.1 1.3.9 2.4 1.7 1.9 1.4 1.9 1.4.6-.3-.7-.9-1.8-1.7-2.4-1.7-.6 0-.8.1-.6.3zM367.4 364.6c-1.8 1.4-1.8 1.5.4.4 1.2-.6 2.2-1.3 2.2-1.5 0-.8-.5-.6-2.6 1.1zM185 365.9c0 .6.4 1.3 1 1.6.6.3.7-.1.4-.9-.7-1.8-1.4-2.1-1.4-.7zM227.5 379c.3.5.8 1 1.1 1 .2 0 .4-.5.4-1 0-.6-.5-1-1.1-1-.5 0-.7.4-.4 1zM113.6 428.3c.3 1 .9 1.5 1.2 1.2.3-.3 0-1.1-.7-1.8-1-.9-1.1-.8-.5.6z"/></svg>