<svg xmlns="http://www.w3.org/2000/svg" width="17.969" height="16" viewBox="0 0 17.969 16">
  <path id="shopping-cart" d="M7,16a2,2,0,1,1,2-2A2,2,0,0,1,7,16Zm7,0a2,2,0,1,1,2-2A2,2,0,0,1,14,16ZM.962,1.923A.962.962,0,0,1,.962,0H2.113A1.924,1.924,0,0,1,3.991,1.506L5.244,7.148A1.924,1.924,0,0,0,7.122,8.654h7.512l1.442-5.77H6.731a.962.962,0,0,1,0-1.922h9.345a1.923,1.923,0,0,1,1.866,2.39L16.5,9.12a1.923,1.923,0,0,1-1.866,1.457H7.122A3.846,3.846,0,0,1,3.367,7.564L2.113,1.923Z" transform="translate(-0.031)" fill="#9381ff"/>
</svg>
