<svg xmlns="http://www.w3.org/2000/svg" width="18" height="18" viewBox="0 0 18 18">
  <path id="arrows-fullscreen" d="M17.1,0a.9.9,0,0,1,.9.9V6.3a.9.9,0,1,1-1.8,0V3.073L10.273,9,16.2,14.927V11.7a.9.9,0,1,1,1.8,0v5.4a.9.9,0,0,1-.9.9H11.7a.9.9,0,0,1,0-1.8h3.227L9,10.273,3.073,16.2H6.3a.9.9,0,1,1,0,1.8H.9a.9.9,0,0,1-.9-.9V11.7a.9.9,0,0,1,1.8,0v3.227L7.727,9,1.8,3.073V6.3A.9.9,0,1,1,0,6.3V.9A.9.9,0,0,1,.9,0H6.3a.9.9,0,1,1,0,1.8H3.073L9,7.727,14.927,1.8H11.7a.9.9,0,0,1,0-1.8Z" fill="#f2f2f2"/>
</svg>
