<svg xmlns="http://www.w3.org/2000/svg" width="24.001" height="12" viewBox="0 0 24.001 12">
  <path id="gamepad-retro" d="M7,5H8A1,1,0,0,1,8,7H7V8A1,1,0,0,1,5,8V7H4A1,1,0,0,1,4,5H5V4A1,1,0,0,1,7,4ZM6,0H18a6,6,0,1,1-4.472,10H10.472A6,6,0,1,1,6,0ZM6,2A4,4,0,1,0,8.982,8.666L9.578,8h4.844l.6.666A4,4,0,1,0,18,2ZM18,5a1,1,0,1,1,1-1A1,1,0,0,1,18,5ZM16,7a1,1,0,1,1,1-1A1,1,0,0,1,16,7Zm4,0a1,1,0,1,1,1-1A1,1,0,0,1,20,7ZM18,9a1,1,0,1,1,1-1A1,1,0,0,1,18,9Z" transform="translate(0.001)" fill="#9381ff"/>
</svg>
