<svg xmlns="http://www.w3.org/2000/svg" width="16" height="18" viewBox="0 0 16 18">
  <path id="play" d="M13.82,9.523A.976.976,0,0,0,13.5,8.16L3.574,2.128a1.031,1.031,0,0,0-.535-.149,1,1,0,0,0-1.013.99V15.03a.973.973,0,0,0,.153.523,1.027,1.027,0,0,0,1.395.317L13.5,9.839a1.015,1.015,0,0,0,.325-.317Zm.746,2L4.645,17.551A3.081,3.081,0,0,1,.459,16.6,2.918,2.918,0,0,1,0,15.03V2.97A3,3,0,0,1,3.04,0,3.091,3.091,0,0,1,4.645.448L14.566,6.48a2.928,2.928,0,0,1,.975,4.088A3.007,3.007,0,0,1,14.566,11.52Z" fill="#f2f2f2"/>
</svg>
