<svg xmlns="http://www.w3.org/2000/svg" width="20" height="18" viewBox="0 0 20 18">
  <path id="triangle-danger" d="M12.8,1.613l6.7,11.161a3.493,3.493,0,0,1-1.057,4.71A3.213,3.213,0,0,1,16.7,18H3.3A3.36,3.36,0,0,1,0,14.581a3.52,3.52,0,0,1,.5-1.807L7.2,1.613a3.231,3.231,0,0,1,4.543-1.1,3.358,3.358,0,0,1,1.057,1.1Zm-2.22.839a1.077,1.077,0,0,0-1.514.365L2.365,13.98a1.17,1.17,0,0,0-.166.6,1.12,1.12,0,0,0,1.1,1.14H16.7a1.073,1.073,0,0,0,.581-.172,1.164,1.164,0,0,0,.353-1.57l-6.7-11.163a1.12,1.12,0,0,0-.352-.365ZM10,14a1,1,0,1,1,1-1A1,1,0,0,1,10,14Zm0-9a1,1,0,0,1,1,1v4a1,1,0,0,1-2,0V6A1,1,0,0,1,10,5Z" transform="translate(0 0)" fill="#f2f2f2"/>
</svg>
