<svg xmlns="http://www.w3.org/2000/svg" width="75" height="72.756" viewBox="0 0 75 72.756">
  <path id="video-camera-vintage" d="M15.317,42.122a7.659,7.659,0,0,0-7.659,7.659v7.659A7.659,7.659,0,0,0,15.317,65.1H38.293a7.659,7.659,0,0,0,7.659-7.659V49.781a7.659,7.659,0,0,0-7.659-7.659Zm37.136,1.811,7.23-7.226A7.659,7.659,0,0,1,65.1,34.464h2.244A7.659,7.659,0,0,1,75,42.122V65.1a7.659,7.659,0,0,1-7.659,7.659H65.1a7.658,7.658,0,0,1-5.413-2.243l-7.231-7.227a15.321,15.321,0,0,1-14.161,9.47H15.317A15.317,15.317,0,0,1,0,57.439V49.781A15.317,15.317,0,0,1,15.317,34.464H38.293a15.321,15.321,0,0,1,14.161,9.471ZM65.1,65.1h2.244V42.122H65.1L53.61,53.61ZM35.455,9.11a17.232,17.232,0,1,1-1.478,22.152A19.146,19.146,0,1,1,35.455,9.11ZM19.146,61.268a3.829,3.829,0,1,1,3.829-3.829A3.829,3.829,0,0,1,19.146,61.268Zm0-30.634A11.488,11.488,0,1,0,7.659,19.147,11.488,11.488,0,0,0,19.146,30.634Zm28.719,0a9.573,9.573,0,1,0-9.573-9.573A9.573,9.573,0,0,0,47.866,30.634Z" transform="translate(0 0)" fill="#48484a"/>
</svg>
