<svg id="spots" xmlns="http://www.w3.org/2000/svg" width="85.223" height="84.51" viewBox="0 0 85.223 84.51">
  <path id="Fill_265" data-name="Fill 265" d="M4.615.032h.732c.226.173,0,.449.172.65l.5.027c.167-.343.285-.841.879-.677.228.054.047.349.211.423C7.458.569,7.7.377,8.019.2c.42.589,1.185.731,1.7,1.258.1.406-.078.859.236,1.255a.639.639,0,0,1-.054.623c-.364.345.077.7-.041.933-.174.348-.035.624-.1.893.314.13.425-.038.631-.253a3.837,3.837,0,0,1-.259,2.308l-.6.066c.1.363-.243.629-.229.99a2.819,2.819,0,0,1-.465,1.615,2.3,2.3,0,0,0-.219,1.279l-1.072.983-.152-.127c-.157.131-.313.355-.512.4-.274.068-.461.357-.809.258a2.713,2.713,0,0,0-.787-.012,2.206,2.206,0,0,0-.657.05c-.26.091-.481.348-.739.382a11.733,11.733,0,0,1-1.5.018c-.266-.5-.846-.624-1.311-.831A1.894,1.894,0,0,1,.054,11.127c-.181-.485.133-.986.361-1.41a3.881,3.881,0,0,1,1.2-1.407C1.23,7.7.881,7.11,1.385,6.426c.145-1.987,1.385-3.5,2.272-5.156.235-.44.812-.645.958-1.239" transform="translate(0 59.176)" fill="#f2f2f2"/>
  <path id="Fill_267" data-name="Fill 267" d="M5.6.106,5.4.347c.055.176.234.094.36.16.208.154-.062.442.176.629.077-.008.219.02.272-.036.69-.725.816-.423,1.429.124a.28.28,0,0,0,.212.075A1.969,1.969,0,0,1,9.967,3.362c.183.022.241-.272.5-.158.139.456.717.744.589,1.394-.027.135.259.333.4.5-.543.452.5,1.079-.147,1.518.014.29.342.342.4.593.072.29-.155.466-.229.7a12.883,12.883,0,0,1-1.218,2.2c-.339.618-1.1.881-1.678,1.217-.313-.062-.413-.336-.628-.463l-.2.513-.381-.556c-.307.2-.095.471-.254.687H5.582l-.422-.422c-.538.521-1,.108-1.482-.2-.64.648-1.292-.338-1.951.031-.283-.312-.71-.472-.642-.985.007-.056-.055-.173-.094-.177C.227,9.678.3,8.927,0,8.5A3.408,3.408,0,0,1,.911,7.314c.083-.077.16-.228.24-.228,1,0,1.045-.951,1.488-1.5a4.427,4.427,0,0,0,.688-1.631,6.994,6.994,0,0,0,.282-1.705C3.63,1.612,3.594.822,4.485.562c.159-.046.277-.248.4-.389.212-.241.446-.2.717-.068" transform="translate(73.495 20.545)" fill="#f2f2f2"/>
  <path id="Fill_269" data-name="Fill 269" d="M9.193,11.277a2.691,2.691,0,0,1-1.219.281,24.761,24.761,0,0,0-2.595,0,4.053,4.053,0,0,1-1.24-.135c-.292-.076-.487.355-.722.029-.192-.265-.5-.058-.729-.144-.261-.1-.479-.339-.823-.166-.153.065.1.418-.25.389-.682-.047-.283-.932-.852-1.1-.041.116-.087.247-.136.386a.281.281,0,0,1-.3-.221A7.383,7.383,0,0,1,.009,8.921a1.783,1.783,0,0,1,.157-.614,3.9,3.9,0,0,0,.5-2.038c-.045-.44.318-.716.268-1.153-.042-.373-.2-.828.2-1.146,0-.677.04-1.357-.01-2.031A2.161,2.161,0,0,1,2.2.034c.091-.071.287-.01.423-.01a2.565,2.565,0,0,1,.355,1.284A2.662,2.662,0,0,1,3.5.47C3.8.212,4.053.134,4.363.42c.13.12.216.3.447.285a1.707,1.707,0,0,1,1.486.76c.36.437.917.683,1,1.4.063.517.519.976.753,1.482C8.679,5.7,9.313,7.06,9.878,8.443a2.589,2.589,0,0,1-.268,1.973c-.118.289-.271.564-.416.861" transform="translate(47.238 25.057)" fill="#f2f2f2"/>
  <path id="Fill_271" data-name="Fill 271" d="M3.134.018c.034.41-.06.85.115,1.041.288.314-.338.507.03.75C3.856,1.363,3.83.528,4.367.057A2.15,2.15,0,0,1,5.3.671c.308.053.349-.146.545-.232A4.778,4.778,0,0,1,7.556,1.605a4.259,4.259,0,0,1,1.035,2.5A13.194,13.194,0,0,0,8.6,5.463a10.265,10.265,0,0,1-.75,4.21,5.141,5.141,0,0,1-.854,1.553c-.257.158-.523.053-.845.092L5.68,10.85c-.316-.039-.369.406-.669.46-.183.032-.254-.125-.368-.219l-.256.232-.139-.4c-.053-.074-.092-.052-.162.03a2.046,2.046,0,0,1-1.917.574c-.462-.3-.732-.811-1.393-.971C.094,10.39-.186,9.278.128,8.6c.257-.56.57-1.074.122-1.7a.917.917,0,0,1,0-.769,18.177,18.177,0,0,0,.43-1.855c.2-.561.311-1.151.53-1.7a1.528,1.528,0,0,0,.157-.5A4.048,4.048,0,0,1,2.149.248c.217-.365.592-.214.985-.229" transform="translate(59.218 50.825)" fill="#f2f2f2"/>
  <path id="Fill_273" data-name="Fill 273" d="M10.288,8.576l-.24-.205-.16.439c-.7-.3-1.275.207-1.916.327a10.406,10.406,0,0,1-1.462.184c-.07-.007-.176-.064-.2-.036-.3.308-.693.157-1.037.236-.295.068-.555-.4-.834-.02-.56-.463-1.216-.132-1.823-.212A8.607,8.607,0,0,0,1.5,9.279L1.17,8.953c.084-.149.3-.238.205-.485-.318-.221-.713,0-1.054-.139C.006,8.052-.157,7.757.212,7.4c.081-.078.206-.146.232-.241.244-.883,1.007-.922,1.7-1.034a7.514,7.514,0,0,0,1.876-.688c.293-.772-.149-1.372-.162-2.025a3.494,3.494,0,0,0-.2-1.835c-.082-.141-.137-.478.075-.621.352-.239.316-.775.722-.925a.651.651,0,0,1,.615.139c.2.153.027.477.321.524.23.036.34-.146.442-.284A.505.505,0,0,1,6.442.257a3.638,3.638,0,0,1,.715.423c.337-.4.592.064.762.168a5.069,5.069,0,0,1,.723.446c.226.2.426.425.642.633a.833.833,0,0,1,.259.462c.03.143.179.189.045.418-.145.247.3.055.4.317.381,1.049,1.051,1.962,1.473,3a.842.842,0,0,1,.035.616,3.169,3.169,0,0,1-1.206,1.837" transform="translate(24.403 25.066)" fill="#f2f2f2"/>
  <path id="Fill_275" data-name="Fill 275" d="M3.935,0c.975.055.975.055,1.134,1.114A1.82,1.82,0,0,1,6.206.437c.162.428.384.845.984.7a.412.412,0,0,1,.282.121c.45.381.624.994,1.119,1.34-.024.732.473,1.448.2,2.155a15.229,15.229,0,0,1-.768,2.28A10.406,10.406,0,0,1,6.213,9.5a.959.959,0,0,0-1.1.462l-.261-.232c-.735.739-.922,1.885-1.827,2.464C2.671,12.362,2.46,11.9,2.2,12c-.337.122-.556-.308-.871-.1a1.128,1.128,0,0,1-.808.049c-.263-.343.377-.5.1-.809-.2-.042-.307.32-.58.106A3.633,3.633,0,0,1,.434,9.106a5.924,5.924,0,0,0,.7-2.419c-.014-.315.2-.524.321-.771.345-.729.587-1.491.863-2.241A13.729,13.729,0,0,1,3.33.818C3.508.54,3.716.3,3.935,0" transform="translate(26.683 0)" fill="#f2f2f2"/>
  <path id="Fill_277" data-name="Fill 277" d="M2.154,8.847c-.195.227.029.5-.2.66a.446.446,0,0,1-.55-.4C1.488,8.323.972,7.971.47,7.58a4.463,4.463,0,0,1-.4-.4C-.138,6.722.178,6.361.3,5.962c.168-.118.353-.046.531-.047.181.1,0,.492.388.432.254-.087.35-.461.351-.573A3.742,3.742,0,0,1,2.06,3.932c-.326-.7.208-1.308.234-1.974A2.808,2.808,0,0,1,3.146.168c.2-.217.414-.087.62-.168-.015.386.463.508.213,1.145C4.387.7,4.37.233,4.745.264A4.014,4.014,0,0,1,6.51.6c.451.29,1.258.416,1.2,1.256a.255.255,0,0,0,.091.184c.863.669.927,1.721,1.252,2.641a6.741,6.741,0,0,1,.477,2.291c0,.449-.464.786-.215,1.227-.252.4-.719.589-.792,1.172-.917-.756-1.819.173-2.694-.093-.2.1-.119.282-.205.409a.281.281,0,0,1-.348.006c-.377.135-.165.44-.415.481-.123-.072-.084-.193-.093-.311-.23-.266-.565-.014-.829-.156l-.4-.4c-.386.246-.454.685-.654,1.1a.62.62,0,0,1-.382-.662c.029-.333.05-.681-.353-.892" transform="translate(35.7 53.524)" fill="#f2f2f2"/>
  <path id="Fill_279" data-name="Fill 279" d="M8.721,11.123c-.137-.216-.056-.4-.229-.472-.234.243-.008.576-.141.861l-.4.04V10.463c-.209.643-1.139.418-1.251,1.083-.171-.265-.432-.239-.691-.216-.229.158,0,.435-.166.62a1.71,1.71,0,0,1-.757.029c-.177-.235-.042-.506-.087-.758a1.649,1.649,0,0,0-.853-.641c.112-.184-.034-.478.027-.539.272-.273.045-.743.455-.961.379-.2-.073-.747.325-.985-.433-.474.2-.885.074-1.381A5.657,5.657,0,0,1,5,5.3c-.2-.1-.213.068-.316.106-.3.018,0-.344-.227-.387-.048.034-.128.058-.149.107a3.22,3.22,0,0,0-.387,2.058,2.157,2.157,0,0,1-.065,1.749c-.087.275.439.367.082.641-.2.152.076.536-.252.685.133.233.169.519.393.7-.042.119-.136.128-.246.135a.545.545,0,0,1-.637-.467c-.061-.285.1-.592-.089-.867-.138-.2.1-.468-.13-.669a.327.327,0,0,1,0-.319c.382-.295.075-.545.019-.844a1.311,1.311,0,0,1,.107-.96,1.5,1.5,0,0,0-.115-1.34c-.1-.255-.331-.106-.434-.261.3-.374.178-.8.171-1.18A.287.287,0,0,0,2.4,4.11c-.036.337-.463.633-.121,1.01-.295.261-.5.683-1.064.531a4.842,4.842,0,0,1,.208-.736,1.471,1.471,0,0,0,.187-.71c-.043-.307.329-.484.231-.811s.185-.363.379-.513-.044-.562.277-.733c-.183-.161-.376-.06-.565-.086-.191.253-.054.611-.371.873-.465.384-.4.447-.691,1.547A9.884,9.884,0,0,1,.394,5.67,1,1,0,0,1,.151,4.325c.165-.4.252-.814.384-1.2C.658,2.764.593,2.226,1.1,2c.338-.153.275-.67.647-.83.123.13.238.292.537.148L1.855.791a.527.527,0,0,1,.777.14C3.02.328,3.838.513,4.245.02c.354.01.437.319.67.468l.138-.4c.152-.1.3.351.5-.01.058-.1.43-.088.633-.035.159.041.293.214.416.348.176.193.439,0,.626.14-.249.37.062.611.182.879.174.386.773.013.959.62.01.051-.319.133-.2.307.434.635.22,1.47.666,2.1.036.05-.023.164.011.22.238.394-.612.782,0,1.171A3.966,3.966,0,0,1,8.82,7.058a5.248,5.248,0,0,0-.2,1.721,1.444,1.444,0,0,0,.041.235c.221.037.275-.183.388-.285.079-.071-.051-.287.237-.321a3.614,3.614,0,0,1-.566,2.716" transform="translate(22.59 72.502)" fill="#f2f2f2"/>
  <path id="Fill_281" data-name="Fill 281" d="M4.282,6.029c.009-.194.008-.3-.1-.375-.311-.192-.374.418-.7.184-.078-.025-.1-.08-.049-.131.258-.258.646-.556.307-.913-.39-.413.237-.565.116-.866.355-.1.639-.521,1.074-.235.089.059.144.176.374.119A6.5,6.5,0,0,0,7.186.881,3.675,3.675,0,0,1,7.784,0c1.34.907,1.34.907,1.831.684a2.729,2.729,0,0,1,.765,1.87,1.2,1.2,0,0,0,.232.809c-.387.478-.065.938.108,1.346.217.513.023,1.023.143,1.519.015.063.1.108.172.179-.31.492-.44,1.1-1.035,1.5-.5-.1-1.092.157-1.663-.126a10.44,10.44,0,0,0-1.744-.42,9.812,9.812,0,0,1-1.529-.765c-.479.1-.763.541-1.124.857A3.007,3.007,0,0,0,2.166,8.1C1.6,8.221.985,7.946.456,8.365L0,7.77c.927.2.877.088,2.153-.5C2.94,6.91,3.421,6.127,4.282,6.029" transform="translate(49.062 2.041)" fill="#f2f2f2"/>
  <path id="Fill_283" data-name="Fill 283" d="M.956,8.171c-.032.285-.053.463-.07.616-.069.1-.108.082-.179,0C.59,8.646.444,8.55.458,8.319c.026-.413-.005-.828.011-1.242a1.252,1.252,0,0,0-.234-.92C-.1,5.773.063,5.326,0,4.928A2.355,2.355,0,0,0,.726,3.485a5.513,5.513,0,0,1,.4-1.751c.127-.23.021-.588.021-.878C1.379.614,1.651.414,1.7.068h.47c.244.244-.008.582.159.85.177.076.39.123.384-.154-.006-.3.523-.3.11-.765A5.232,5.232,0,0,0,4.778.285c.329.042.123.361.412.484A1.861,1.861,0,0,1,6.348,2.552a8.13,8.13,0,0,1-.457,2.865A1.473,1.473,0,0,1,4.482,6.634c-.736.058-1.061.509-1.079,1.27-.007.3,0,.594,0,.881-.228.163-.227-.13-.341-.126-.3-.133-.4.383-.726.178-.2-.143.064-.43-.14-.6-.049.029-.142.057-.142.087-.006.328-.339.555-.266.918.02.1-.178.087-.288.091-.21-.122-.116-.327-.128-.5s0-.367,0-.487c-.107-.2-.236-.121-.413-.172" transform="translate(21.931 48.965)" fill="#f2f2f2"/>
  <path id="Fill_285" data-name="Fill 285" d="M6.226,4.926,6.7,5.1a.363.363,0,0,1-.091.411.456.456,0,0,0,.051.685c.445.381.369.7-.012,1.11A.9.9,0,0,0,6.478,8.34c-.207.308-.451-.182-.562-.075-.27.261-.565.131-.846.156-.262.022-.526,0-.79,0H3.457a5.014,5.014,0,0,1-.748-1.018,6.815,6.815,0,0,1-.31-.9c-.094-.356.428-.5.123-.883-.17-.212-.079-.635-.105-.963-.524-.428-1.41-.125-1.754-.9l.184-.184C.726,3.4.408,3.414.341,3.093.306,2.923.259,2.576,0,2.467l.268-.558c.047.028.136.053.14.088a1.777,1.777,0,0,0,.025.443c.055.128.2.217.306.322.178-.063.1-.242.17-.373.255.039.545.435.753-.13l.2.526c.162-.015.4.036.5-.06A4.8,4.8,0,0,0,3.723,1.15,3.474,3.474,0,0,1,4.682,0c.342.222.326.494.175.686a.638.638,0,0,0-.053.761A3.371,3.371,0,0,0,5.371.8c.136-.276.234-.521.588-.5.227.263.024.59.128.857.292.008.167-.187.21-.31a.491.491,0,0,1,.755.111c.165.23.227.529.483.7a.409.409,0,0,1,.1.512,15.864,15.864,0,0,0-.641,2.1c-.121.4-.366.492-.765.654" transform="translate(2.778 26.145)" fill="#f2f2f2"/>
  <path id="Fill_287" data-name="Fill 287" d="M2.737,0c.226,0,.258.251.454.309L2.959.568a.244.244,0,0,0,.28.11c.255-.072.318-.41.628-.452.327.021.487.358.777.506a2.624,2.624,0,0,1,.909,2.659,3.046,3.046,0,0,0,.066,2c-.021.1-.205,0-.327.073-.254.326.03.584.153.868-.08.317-.41.421-.547.685a.992.992,0,0,0-1.1-.257c-.4.147-.581-.323-.838-.541l.2-.248c-.29-.239-.434-.007-.562.154-.243.3-.159.826-.7.944-.175.038-.058.337-.072.515a.577.577,0,0,1-.524.566c-.32-.162,0-.53-.27-.688C.511,7.842.746,8.7,0,9.056.211,8.318.453,7.668.574,7s.8-1.212.485-2.086A22.293,22.293,0,0,0,.1,7.449,2.16,2.16,0,0,1,.221,6.1c.373-.9.62-1.847.926-2.771.164-.495.325-.992.529-1.471a1.557,1.557,0,0,0,.155-.389C1.962.662,2.012.6,2.737,0" transform="translate(65.081 7.683)" fill="#f2f2f2"/>
</svg>
