<svg xmlns="http://www.w3.org/2000/svg" width="75.057" height="32.216" viewBox="0 0 75.057 32.216">
  <g id="loop1" transform="translate(0 0)">
    <path id="Fill_145" data-name="Fill 145" d="M35.5,32.217a11.155,11.155,0,0,1-5.042-1.371l-.613-.308a18.338,18.338,0,0,1-5.613-3.744l-.248-.271c-1.828-2-3.719-4.067-3.884-7.082a8.184,8.184,0,0,1,2.638-6.411,28.679,28.679,0,0,1,5.8-4.424A4.3,4.3,0,0,0,26.087,7.1,4.664,4.664,0,0,1,23.892,5.89a.9.9,0,0,0-.455-.206c-.357-.094-.761-.2-.7-.839a.146.146,0,0,0-.028-.116.124.124,0,0,0-.1-.035.393.393,0,0,0-.214.077,1.3,1.3,0,0,1-.8.292,2.626,2.626,0,0,1-1.057-.319,2.684,2.684,0,0,0-1.072-.324,4.213,4.213,0,0,1-2.48-1.174,1.667,1.667,0,0,0-.974-.21c-.063,0-.128,0-.195,0-.207.008-.422.035-.631.06a6.439,6.439,0,0,1-.778.064,1.763,1.763,0,0,1-1.342-.519.274.274,0,0,0-.2-.081,1,1,0,0,0-.339.091,1.623,1.623,0,0,1-.208.072,1.256,1.256,0,0,0-.176.061.753.753,0,0,1-.277.074.37.37,0,0,1-.185-.051,1.018,1.018,0,0,0-.371-.167c-.111,0-.153.13-.254.444a4.478,4.478,0,0,0-3.01-.88c-.294,0-.6.011-.887.021-.225.008-.457.016-.686.019s-.485.025-.722.046c-.259.023-.527.046-.789.046a2.383,2.383,0,0,1-1.549-.476L3.4,1.856a1.015,1.015,0,0,0-.559-.248c-.239,0-.41.181-.508.538-.046.166-.265.258-.618.258C1.1,2.4.242,2.122.084,1.773-.029,1.526-.05,1.362.158,1.2a.294.294,0,0,1,.184-.069A.469.469,0,0,1,.658,1.3L.7,1.341c.235.237.456.46.667.46s.371-.2.537-.618c.056-.139.444-.2.8-.2a2.374,2.374,0,0,1,.468.042,1.324,1.324,0,0,0,.269.032c.413,0,.513-.295.547-.8.133.112.268.214.4.312a3.157,3.157,0,0,1,.71.652.724.724,0,0,0,.6.376,1.437,1.437,0,0,0,.542-.155,1.678,1.678,0,0,1,.471-.151c.038,0,.166-.021.2-.09a.106.106,0,0,0-.02-.106A.831.831,0,0,1,6.721.356.464.464,0,0,1,7.078.085,3.512,3.512,0,0,1,7.83,0,2.39,2.39,0,0,1,9.109.335c.066.041.124.082.18.121a.722.722,0,0,0,.4.182A.824.824,0,0,0,10.181.4a.91.91,0,0,1,.6-.205,3.113,3.113,0,0,1,.81.157,3.223,3.223,0,0,0,.846.162c.046,0,.074.011.086.032.026.047-.03.139-.085.229a.934.934,0,0,0-.081.151.334.334,0,0,0-.009.276c.056.1.2.127.35.158l.085.018a.883.883,0,0,0,.181.024c.059,0,.1-.013.113-.04.03-.047-.009-.13-.047-.209a.679.679,0,0,1-.048-.119.324.324,0,0,1,.023-.28c.068-.087.216-.095.349-.1h.011a11.234,11.234,0,0,1,2.619.415c.493.119,1,.241,1.51.321.282.045.249.26.211.51a1.5,1.5,0,0,0-.025.388c.306-.365.664-.738.979-.738.269,0,.483.261.655.8.024.075.079.2.177.2a.217.217,0,0,0,.143-.075.9.9,0,0,0,.122-.181c.041-.072.076-.134.1-.134.153.033.136.14.118.255a.748.748,0,0,0-.012.1.268.268,0,0,0,.065.2.177.177,0,0,0,.13.053.264.264,0,0,0,.094-.019,2.993,2.993,0,0,1,1.065-.2,5.072,5.072,0,0,1,2.874,1.281c.109.079.215.155.321.23a21.925,21.925,0,0,0,4.172,2.327,2,2,0,0,1,1.042.976,1.313,1.313,0,0,1,.823-.223c.084,0,.171,0,.255.006h.009c.084,0,.179.007.273.007a1.689,1.689,0,0,0,.669-.115c2.264-.966,4.164-1.683,5.977-2.254A64.038,64.038,0,0,1,52.449,2.209c1.981-.151,3.911-.172,5.539-.172.708,0,1.425,0,2.118.009l.292,0c.612,0,1.246.007,1.869.007h.189a11.784,11.784,0,0,1,1.538.136c.18.024.365.049.548.07.046.005.1.009.145.013.3.022.629.047.64.426.007.217-.147.232-.325.248a.46.46,0,0,0-.393.17,2.943,2.943,0,0,0,1.579.341c.111,0,.223,0,.336,0s.224,0,.336,0a4.422,4.422,0,0,1,1.045.1.83.83,0,0,0-.57-.649.953.953,0,0,1-.466-.368h.039c.169,0,.336-.009.5-.017s.334-.018.5-.018a2.608,2.608,0,0,1,.565.053c.52.115,1.055.206,1.572.294a18.016,18.016,0,0,1,2.879.655.954.954,0,0,0,.194.038c.1.013.2.024.222.085s-.022.185-.159.375c-.077.107-.1.188-.075.241s.1.066.161.066a.634.634,0,0,0,.311-.086.859.859,0,0,1,.468-.15.609.609,0,0,1,.583.379,3.094,3.094,0,0,0,.178.377c.183.349.373.71.161,1.089-.017.031-.036.066-.055.1-.11.211-.26.5-.483.5-.138,0-.291-.111-.454-.331-.076-.1-.244-.293-.31-.293l-.01,0a1.57,1.57,0,0,1-.656.141,3.624,3.624,0,0,1-1.339-.365l0,0A3.654,3.654,0,0,0,70.3,5.3a1.645,1.645,0,0,0-.893.264.452.452,0,0,1-.246.063,1.773,1.773,0,0,1-.455-.089,2.195,2.195,0,0,0-.389-.086,4.744,4.744,0,0,1-.785-.161,3.868,3.868,0,0,0-.969-.17,1.553,1.553,0,0,0-1.012.367.425.425,0,0,1-.273.107.948.948,0,0,1-.465-.193,1.164,1.164,0,0,0-.557-.226c-.1,0-.2-.005-.3-.005a16.3,16.3,0,0,0-3.231.432c-.612.124-1.245.253-1.875.335a.865.865,0,0,1-.11.006c-.075,0-.152-.008-.227-.015H58.5a2.2,2.2,0,0,0-.232-.016.929.929,0,0,0-.094,0c-.615.064-1.248.066-1.86.067a9,9,0,0,0-3.857.582.914.914,0,0,1-.391.083,2.314,2.314,0,0,1-.552-.091l-.008,0a2.451,2.451,0,0,0-.58-.092l-.083,0a16.024,16.024,0,0,0-2.411.409,13.363,13.363,0,0,1-2.892.425c-.1,0-.194,0-.289-.006h-.039a1.257,1.257,0,0,0-1.033.633,1.035,1.035,0,0,1-.782.312.77.77,0,0,1-.133-.011,5.107,5.107,0,0,0-.892-.078,9.849,9.849,0,0,0-3.546.895c-.324.126-.658.256-.989.374-.522.186-1.048.364-1.657.57l-.006,0-.923.313a25.06,25.06,0,0,1,6.808,7.665c1.26,2.222,2.451,4.912,1.734,8.019-.541,2.348-2.036,4.055-4.7,5.373A8.055,8.055,0,0,1,35.5,32.217Zm-.747-3.743h0a5.967,5.967,0,0,0,1.352.168,4.349,4.349,0,0,0,3.1-1.308,14.062,14.062,0,0,0-1.876.56,7.591,7.591,0,0,1-2.508.579ZM32.886,11.581a2.123,2.123,0,0,0-1.008.3c-1.092.586-2.15,1.236-3.228,1.906-.177.11-.374.206-.565.3a2.413,2.413,0,0,0-1.2.94,1.123,1.123,0,0,1-.659.464c-.373.147-.724.285-.676.843-.935.327-1.19,1.117-1.436,1.881a4.655,4.655,0,0,1-.484,1.144,1.51,1.51,0,0,1-.246.258c-.222.2-.475.431-.326.785.047.112.092.224.137.336a4.867,4.867,0,0,0,.818,1.5,16.4,16.4,0,0,0,4.558,3.251l.56.31a13.191,13.191,0,0,0,5.552,1.636c.191-.018.368-.033.535-.047.34-.028.633-.053.929-.094A6.023,6.023,0,0,0,40.637,24a4.985,4.985,0,0,0-.292-4.849,30.057,30.057,0,0,0-6.3-7.072A1.756,1.756,0,0,0,32.886,11.581ZM29.42,9.168h0a1.078,1.078,0,0,0-.4.1,5.241,5.241,0,0,0-.907.531,3.561,3.561,0,0,1-1.422.68.2.2,0,0,0-.146.116.281.281,0,0,0,0,.25c.083.143.265.351.362.351l.015,0c.1-.026.208-.052.324-.08.488-.118,1.095-.264,1.109-.441.06-.729.527-.84.979-.948a2.126,2.126,0,0,0,.531-.176c-.1-.258-.25-.385-.452-.385ZM56.76,2.855c-1.183,0-2.389.085-3.556.167-.613.043-1.243.087-1.863.119a65.926,65.926,0,0,0-9.733,1.453,45.2,45.2,0,0,0-6.395,1.978c-.86.313-1.749.637-2.628.932-.046.015-.1.028-.155.041-.164.039-.35.084-.418.21a.314.314,0,0,0,0,.264.357.357,0,0,0,.369.214.894.894,0,0,0,.4-.1,16.352,16.352,0,0,1,2.091-.87c.294-.107.6-.217.894-.332A61.657,61.657,0,0,1,52.242,3.472c1.628-.164,3.291-.247,4.9-.328.733-.037,1.491-.075,2.237-.12a18.37,18.37,0,0,0-2.617-.17Zm12.174.288a1.963,1.963,0,0,0-.65.117.9.9,0,0,0,.81.5,2.578,2.578,0,0,0,.517-.072,2.542,2.542,0,0,1,.506-.072l.074,0A2.048,2.048,0,0,0,68.934,3.143Zm-6.466-.272h0a9.764,9.764,0,0,0-1.283.115c-.2.026-.4.054-.6.075l.179.01,3.311.189a3.175,3.175,0,0,0-1.608-.388Z" transform="translate(0 0)" fill="#f2f2f2"/>
  </g>
</svg>
