<svg xmlns="http://www.w3.org/2000/svg" width="55.651" height="107.547" viewBox="0 0 55.651 107.547">
  <g id="loop2" transform="translate(0 0)">
    <path id="Fill_139" data-name="Fill 139" d="M2.1,107.548a7.044,7.044,0,0,1-1.44-.15l.5-.363.209-.152a.456.456,0,0,0-.323-.129,1.233,1.233,0,0,0-.272.042l-.008,0a1.343,1.343,0,0,1-.3.044A.673.673,0,0,1,0,106.653a78.25,78.25,0,0,0,13.522-11.11c4.1-4,8.342-8.138,11.467-13.242a.433.433,0,0,0-.407-.28,1.152,1.152,0,0,0-.209.026c-.044.008-.086.016-.127.02-.489.047-.984.071-1.474.071a16.909,16.909,0,0,1-7-1.579,76.871,76.871,0,0,1-8.6-4.489,8.092,8.092,0,0,1-3.522-3.618,8.433,8.433,0,0,1-.216-5.065,12.554,12.554,0,0,1,3.92-6.932,12.818,12.818,0,0,1,7.33-3.2,18.813,18.813,0,0,1,1.9-.1,14.783,14.783,0,0,1,11.146,4.886A13.67,13.67,0,0,1,30.8,68.842a30.225,30.225,0,0,1,.585,6.847c-.016.592-.025.918.091,1.038a.193.193,0,0,0,.147.054,3.036,3.036,0,0,0,.931-.353,27.1,27.1,0,0,0,8.268-5.958,35.459,35.459,0,0,0,6.227-9.734c2.694-5.813,3.62-12.1,4.515-18.188.573-3.89,1.26-9.025,1.5-14.245a85.016,85.016,0,0,0-.873-15.958c-.207-1.449-.481-2.91-.747-4.323C51.22,6.83,50.988,5.6,50.8,4.376a9.977,9.977,0,0,0-.548-1.853A11.36,11.36,0,0,1,49.712.769a1.813,1.813,0,0,0-.048-.182C49.6.386,49.546.2,49.75.061A.324.324,0,0,1,49.93,0c.145,0,.261.124.372.243.031.033.062.066.093.1a2.159,2.159,0,0,0,.221.178.824.824,0,0,1,.422.565,11.344,11.344,0,0,0,1.048,3.307,13.431,13.431,0,0,1,.971,2.778c.226,1.177.5,2.365.764,3.513.233,1.009.473,2.053.68,3.085a60.8,60.8,0,0,1,.851,6.71,89.141,89.141,0,0,1-.321,17.645c-.448,4.022-.911,8.181-1.683,12.244A49.557,49.557,0,0,1,50.3,61.143a54.483,54.483,0,0,1-4.092,7.835,21.537,21.537,0,0,1-4.473,5.248q-.365.3-.727.6a34.935,34.935,0,0,1-3.181,2.423l-.193.125a19.465,19.465,0,0,1-5.4,2.75,4.305,4.305,0,0,0-2.944,2.963A22.436,22.436,0,0,1,26.1,88.556a89.467,89.467,0,0,1-12.808,13.234,29.326,29.326,0,0,1-7.236,4.775A9.52,9.52,0,0,1,2.1,107.548Zm16.846-15.7h0l-1.717,1.7-1.717,1.7,0,.008,0,.008,2.374-2.166.029-.027,1.172-1.069Zm-.667-31.964a12.63,12.63,0,0,0-5.692,1.308,9.8,9.8,0,0,0-4.417,4.388,11.485,11.485,0,0,0-1.3,6.282A2.728,2.728,0,0,0,8.3,74.139c.54.3,1.094.6,1.629.9,1.218.662,2.477,1.347,3.664,2.1a13.9,13.9,0,0,0,7.671,2.2,20.3,20.3,0,0,0,4.815-.623,1.332,1.332,0,0,0,1.1-1.085,16.539,16.539,0,0,0,.478-4.916,26.3,26.3,0,0,0-.488-5.491,10.609,10.609,0,0,0-1.769-4.37,6.963,6.963,0,0,0-3.954-2.577A12.546,12.546,0,0,0,18.275,59.879Z" transform="translate(0 0)" fill="#f2f2f2"/>
  </g>
</svg>
