<svg xmlns="http://www.w3.org/2000/svg" width="138.498" height="144.008" viewBox="0 0 138.498 144.008">
  <g id="_10" data-name="10" transform="translate(0 0)">
    <path id="Fill_519" data-name="Fill 519" d="M55.607,144.008c-1.472,0-2.966-.046-4.442-.136a58.96,58.96,0,0,1-15.754-3.082A53.842,53.842,0,0,1,21.2,133.309a54.582,54.582,0,0,1-8.276-7.449,48.426,48.426,0,0,1-6.2-8.633,49.418,49.418,0,0,1-4.166-9.79A57.555,57.555,0,0,1,.4,96.516c-.133-1.307-.21-2.641-.285-3.932-.035-.6-.071-1.227-.112-1.841A61.078,61.078,0,0,1,3.492,70.565,122.727,122.727,0,0,0,8,53.669c.275-1.276.56-2.595.851-3.892a86.392,86.392,0,0,1,6.08-18.267A60,60,0,0,1,25.745,15.556,51.248,51.248,0,0,1,38.466,5.681,46.181,46.181,0,0,1,53.73.631,57.752,57.752,0,0,1,62.145,0,51.712,51.712,0,0,1,77.681,2.362a6.616,6.616,0,0,0,1.965.385,3.425,3.425,0,0,0,.569-.047A34.953,34.953,0,0,1,86,2.215,40.428,40.428,0,0,1,102.173,5.8a69.745,69.745,0,0,1,12.119,6.662,61.72,61.72,0,0,1,10.42,9.083,56,56,0,0,1,6.453,8.512,46.393,46.393,0,0,1,4.5,9.65c2.855,8.654,3.544,16.491,2.106,23.956a22.215,22.215,0,0,0-.284,2.517,15.217,15.217,0,0,1-.495,3.339c-.328,1.048-.572,2.129-.808,3.175-.257,1.14-.523,2.319-.9,3.445a54.987,54.987,0,0,0-1.723,7.4c-.235,1.274-.477,2.59-.765,3.875a61.03,61.03,0,0,1-4.954,13.524,66.893,66.893,0,0,1-5.006,8.645,52.284,52.284,0,0,1-6.374,7.634c-3.854,3.785-8.422,8.087-13.877,11.239-1.371.793-2.744,1.641-4.072,2.461-2.323,1.435-4.724,2.918-7.212,4.166a87.5,87.5,0,0,1-17.388,6.586A73.844,73.844,0,0,1,55.607,144.008ZM7.295,85.343A21.434,21.434,0,0,0,6.716,91.1c0,.341-.005.692-.011,1.038a48.859,48.859,0,0,0,1.677,13.582,51.485,51.485,0,0,0,5.267,12.508,42.811,42.811,0,0,0,8.259,10.209A43.441,43.441,0,0,0,33.015,135.7a53.4,53.4,0,0,0,10.308,3.518,48.538,48.538,0,0,0,10.75,1.212c.843,0,1.7-.022,2.546-.066A68.6,68.6,0,0,0,69.9,138.33a80.7,80.7,0,0,0,12.691-4.423c15.387-6.8,26.925-15.773,35.276-27.44a49.755,49.755,0,0,0,5.9-10.607c-.057,0-.117-.006-.183-.006a1.889,1.889,0,0,0-1.587.732,28.4,28.4,0,0,1-6.983,5.723c-1.623,1.06-3.088,1.986-4.478,2.831a15.078,15.078,0,0,0-4.2,4.43c-.414.577-.841,1.174-1.291,1.738a81.576,81.576,0,0,1-8.325,9.021,68.794,68.794,0,0,1-9.728,7.533,62.875,62.875,0,0,1-13.01,6.457,48.949,48.949,0,0,1-14.293,2.789c-.838.037-1.671.056-2.475.056a43.235,43.235,0,0,1-13.141-1.937c-7.762-2.437-14.546-6.959-20.74-13.827a57.314,57.314,0,0,1-9.964-15.57A83.664,83.664,0,0,1,7.992,88.115c-.125-.639-.3-1.279-.466-1.9C7.449,85.931,7.369,85.635,7.295,85.343ZM41.949,25.52c-.162.068-.3.116-.418.159a1.527,1.527,0,0,0-.466.219A111.342,111.342,0,0,0,26.877,40.327a88.447,88.447,0,0,0-8.792,12.8c-1.81,3.118-3.468,6.217-3.858,9.828a84.607,84.607,0,0,0,1,26.34A78.734,78.734,0,0,0,20.9,107.061a56.566,56.566,0,0,0,10.469,15.433,37.261,37.261,0,0,0,16.207,10.061,30.908,30.908,0,0,0,9.033,1.351c5.983,0,12.234-1.663,19.674-5.234a67.461,67.461,0,0,0,15.946-11.139,31.694,31.694,0,0,0,6.066-7.032c-1.552.177-3,.438-4.407.69-1.429.257-2.779.5-4.166.646a46.4,46.4,0,0,1-4.849.257,44.336,44.336,0,0,1-11.128-1.42,48.4,48.4,0,0,1-10.535-4.142,47.239,47.239,0,0,1-14.13-11.358,51.258,51.258,0,0,1-8.89-15.82,69.209,69.209,0,0,1-3-11.422,70.333,70.333,0,0,1-1.01-11.466,85.027,85.027,0,0,1,3.219-23.023c.486-1.764,1.067-3.484,1.682-5.3C41.363,27.289,41.659,26.414,41.949,25.52ZM66.294,11.8a18.7,18.7,0,0,0-9.209,3.858c-2.386,1.929-3.865,4.429-5.431,7.076l-.005.009-.347.585a52.07,52.07,0,0,0-5.072,12.165,68.18,68.18,0,0,0-2.242,11.467,92.918,92.918,0,0,0-.648,13.787,55.048,55.048,0,0,0,2.111,13.64c2.994,10.239,7.831,18.18,14.789,24.276a40.026,40.026,0,0,0,11.916,7.314A35.709,35.709,0,0,0,85.08,108.39a40.319,40.319,0,0,0,16.553-3.7,4.8,4.8,0,0,0,2.311-1.822,66.164,66.164,0,0,0,7.516-18.766,75.257,75.257,0,0,0,1.2-27.121,68.734,68.734,0,0,0-4.993-18.511A56.744,56.744,0,0,0,97.173,22.463,47.241,47.241,0,0,0,89.622,15.6a23.755,23.755,0,0,0-9.373-4.1c-.267-.051-.543-.109-.81-.165a13.074,13.074,0,0,0-2.627-.373,3.63,3.63,0,0,0-2.777,1.093,28.476,28.476,0,0,0-4.917,6.477,40.778,40.778,0,0,0-3.2,31.613,17.533,17.533,0,0,0,7.719,9.946,5.461,5.461,0,0,0,.595.309,3.525,3.525,0,0,1,.957.574.741.741,0,0,1,.145.926,1.265,1.265,0,0,1-1.272.642,5.759,5.759,0,0,1-1.56-.271,4.427,4.427,0,0,1-1.073-.516c-4.723-2.94-7.851-6.423-9.562-10.649-3.7-9.147-3.845-18.921-.435-29.882A35.4,35.4,0,0,1,66.294,11.8Zm42.717,83.475q-.991,2.211-1.979,4.423l.243-.315a10.434,10.434,0,0,0,2.183-3.834l-.447-.274Zm-17.033-82.9a11.621,11.621,0,0,0,2.9,2.573c.545.382,1.108.778,1.623,1.216a59.573,59.573,0,0,1,10.913,12.285,69.685,69.685,0,0,1,7.371,14.713,65.023,65.023,0,0,1,3.6,15.833,89.761,89.761,0,0,1,.126,16.176,70.575,70.575,0,0,1-4.657,19.859,3.125,3.125,0,0,1-.172.349c-.225.416-.48.888.08,1.239a.582.582,0,0,0,.31.1c.271,0,.471-.251.665-.493a2.344,2.344,0,0,1,.284-.317,44.68,44.68,0,0,0,9.528-11.669,36.687,36.687,0,0,0,2.986-6.174,17.628,17.628,0,0,0,1.033-6.912,81.01,81.01,0,0,0-2.446-15.924,68.11,68.11,0,0,0-5.5-14.294A66.461,66.461,0,0,0,112.012,28.3,76.02,76.02,0,0,0,100.2,17.341,40.529,40.529,0,0,0,91.977,12.373Zm20.6,71.549h0q-.43,1.64-.86,3.28l-.015.058,0,.011-.713,2.718a12.339,12.339,0,0,0,1.591-6.067ZM89.524,6.322h0a88.109,88.109,0,0,1,14.536,8.62,75.932,75.932,0,0,1,21.328,24.051,87.612,87.612,0,0,1,6.8,15.46,49.221,49.221,0,0,0-3.316-17.839,43.407,43.407,0,0,0-10.141-15.035,63.278,63.278,0,0,0-13.243-10.2A40.023,40.023,0,0,0,89.524,6.322ZM27.145,16.835a25.851,25.851,0,0,0-4.456,4.784c-.276.414-.591.813-.9,1.2a7.338,7.338,0,0,0-1.81,3.406l-.029.038-.029.038-.015.033,0,.006c-.472.041-.676.4-.873.751l-.062.109a59.3,59.3,0,0,0-5.3,11.268,8.19,8.19,0,0,1-.591,1.282,4.21,4.21,0,0,0-.72,2.913,1.981,1.981,0,0,0,1.183-1.785,7.9,7.9,0,0,1,1.011-3.086c.1-.2.2-.416.3-.626,1.36-2.909,2.739-5.869,4.072-8.731l.976-2.094.034,0h.026l.006-.048.009-.064,3.544-4.648ZM61.612,4.945a43.855,43.855,0,0,0-25.1,10.516c-8.513,7.2-13.5,14.459-15.7,22.859l.227-.253,0,0h0c.178-.2.361-.4.534-.607A120.88,120.88,0,0,1,38.516,20.908,55.421,55.421,0,0,1,43.8,17.295a49.921,49.921,0,0,0,5.7-3.956c3.73-3.148,7.464-6.119,12.108-7.882.021-.008.018-.08.012-.21C61.617,5.166,61.612,5.064,61.612,4.945Z" transform="translate(0 0)" fill="#f2f2f2"/>
  </g>
</svg>
