<svg xmlns="http://www.w3.org/2000/svg" width="193.903" height="141.528" viewBox="0 0 193.903 141.528">
  <g id="_29" data-name="29" transform="translate(0 0)">
    <path id="Fill_333" data-name="Fill 333" d="M150.344,141.528c-.081,0-.161,0-.24-.008-.405-.026-.835-.038-1.353-.038-.405,0-.818.008-1.217.015l-.7.012h-.066a10.853,10.853,0,0,1-2.637-.435c-.218-.055-.442-.111-.663-.163a11.389,11.389,0,0,1-2.183-.739,2.75,2.75,0,0,0-1.15-.279,2.069,2.069,0,0,0-.329.026,2.029,2.029,0,0,1-.318.025,4.028,4.028,0,0,1-1.605-.46l-.033-.015A22.948,22.948,0,0,1,133.5,136.8l-.065-.047c-.147-.107-.3-.213-.444-.315l-.006,0a10.859,10.859,0,0,1-1.681-1.359,12.416,12.416,0,0,1-2.493-4.054,16.041,16.041,0,0,0-1.424-2.571,31.916,31.916,0,0,1-2.188-4.107l-.006-.012c-.151-.318-.306-.647-.471-.99-.559-1.164-1.021-2.382-1.467-3.561l0-.008c-.194-.513-.4-1.043-.6-1.561-.108-.272-.222-.547-.332-.813-.257-.62-.522-1.261-.738-1.91A11.455,11.455,0,0,0,120.4,112.8a6.579,6.579,0,0,1-.429-.836,7,7,0,0,0-.424-.833,21.878,21.878,0,0,1-1.267-2.448c-.1-.212-.2-.424-.3-.635-.175-.369-.359-.743-.537-1.105l0-.009c-.426-.867-.867-1.764-1.23-2.669a14.554,14.554,0,0,0-.824-1.641,14.5,14.5,0,0,1-.82-1.633,24.906,24.906,0,0,0-1.2-2.452l0-.006c-.143-.268-.292-.545-.434-.819a4.723,4.723,0,0,0-2.363-2.376,4.143,4.143,0,0,1-1.725-1.284.351.351,0,0,1-.315.179,1.15,1.15,0,0,1-.248-.038,1.17,1.17,0,0,0-.246-.038.326.326,0,0,0-.271.127.834.834,0,0,0-.67-.229h-.2a1.342,1.342,0,0,1-.389-.044l-.02,0a.038.038,0,0,1-.031-.013c-.021-.025-.011-.083,0-.144l0-.026c.011-.063.018-.128-.009-.161a.07.07,0,0,0-.057-.022.507.507,0,0,0-.206.071,1.871,1.871,0,0,1-.814.129c-.14,0-.285.006-.428.02-.031-.161-.061-.311-.1-.489l0-.012-.07-.353-.093.266-.1.29-.272-.18-.02-.013-.588-.388.1-.36.093-.324a1.694,1.694,0,0,0-.932-.288,2.025,2.025,0,0,0-.692.131l.978.464.25.118-.208.426-.109.224c-.069-.033-.1-.128-.127-.219-.036-.116-.073-.236-.191-.236a.539.539,0,0,0-.28.127l.151.337.135.3c-.031.016-.06.035-.085.051a.231.231,0,0,1-.089.045l-.01,0c-.293-.155-.587-.319-.872-.477l-.234-.13a2.571,2.571,0,0,1-1.723,1.081l.08-.231.125-.362a.778.778,0,0,1-.183-.193.62.62,0,0,0-.509-.319.679.679,0,0,0-.071,0c.046.251.091.491.134.723l.052.277c-.221.1-.319.17-.349.255a.315.315,0,0,0,.046.246.456.456,0,0,1-.274.119c-.15,0-.255-.126-.366-.259a.654.654,0,0,0-.392-.288c-.021.142-.04.266-.058.383l-.007.046c-.014.09-.027.176-.04.264a.537.537,0,0,1-.2-.09.43.43,0,0,0-.227-.089.379.379,0,0,0-.23.1,3.96,3.96,0,0,1-.721.414,3.9,3.9,0,0,0-.728.42.816.816,0,0,1-.514.2,1.665,1.665,0,0,1-.656-.2l-.038-.017c-.009.121-.017.234-.027.363l-.021.283a1.153,1.153,0,0,0-.21-.019,2.147,2.147,0,0,0-.892.266,4.12,4.12,0,0,1-.477.2c-.841.266-1.674.594-2.479.912-.405.16-.824.325-1.239.48-.674.252-1.35.534-2,.806l0,0c-.418.174-.851.354-1.279.525l-.082.033c-.862.345-1.754.7-2.646,1.018-.743.265-1.482.578-2.2.881-.483.2-.982.416-1.479.611-.8.312-1.6.664-2.387,1l-.495.215a2.667,2.667,0,0,0-.244.128,1.205,1.205,0,0,1-.588.209.711.711,0,0,1-.172-.022.174.174,0,0,0-.041,0,.426.426,0,0,0-.251.1,4.418,4.418,0,0,1-1.633.811,5.253,5.253,0,0,0-1.391.62.3.3,0,0,1-.159.045.23.23,0,0,1-.047,0,1.784,1.784,0,0,0-.344-.034,3.092,3.092,0,0,0-1.469.507c-.189.1-.384.21-.582.3a22.515,22.515,0,0,1-3.766,1.27l-.181.04a2.334,2.334,0,0,0-.624.2.782.782,0,0,1-.375.076.762.762,0,0,0-.293.046,2.121,2.121,0,0,0-.7.477.208.208,0,0,1-.152.081.376.376,0,0,1-.193-.083.408.408,0,0,0-.212-.089.258.258,0,0,0-.18.088,1.084,1.084,0,0,1-.534.215,1.766,1.766,0,0,0-.437.136,2.435,2.435,0,0,1-.635.2,1.661,1.661,0,0,0-.93.414.329.329,0,0,1-.23.063.781.781,0,0,1-.314-.063.746.746,0,0,0-.28-.1c-.1,0-.177.076-.274.272-.083.168-.448.222-.742.265h-.005l-.121.018a7.057,7.057,0,0,0-1.159.323,5.077,5.077,0,0,1-1.633.362l-.09,0a4.036,4.036,0,0,1-1.763.562,8.4,8.4,0,0,0-.872.166c-.079.021-.158.046-.234.07a3.215,3.215,0,0,1-.371.1,1.387,1.387,0,0,1-.266.021l-.134,0-.126,0a1,1,0,0,0-.644.182.458.458,0,0,1-.283.073c-.056,0-.115,0-.176-.009s-.128-.009-.193-.009a.63.63,0,0,0-.491.187.154.154,0,0,1-.11.03.839.839,0,0,1-.395-.116.37.37,0,0,0-.174-.078.055.055,0,0,0-.041.015c-.026.026-.025.081-.024.133s0,.1-.024.115a.361.361,0,0,1-.166.03h-.13a.4.4,0,0,0-.163.026,3.586,3.586,0,0,1-1.48.332,3.312,3.312,0,0,1-.424-.027,3.913,3.913,0,0,0-.5-.031,9.044,9.044,0,0,0-1.4.146,9,9,0,0,1-1.408.147h-.12a1.606,1.606,0,0,0-.33.047,1.612,1.612,0,0,1-.334.048.591.591,0,0,1-.372-.122,1.138,1.138,0,0,1-.533.123,3.118,3.118,0,0,1-.579-.074,3.051,3.051,0,0,0-.577-.074,1.226,1.226,0,0,0-.271.028,1.993,1.993,0,0,0-.3.1,1.166,1.166,0,0,1-.394.113.261.261,0,0,1-.1-.02,3.128,3.128,0,0,0-1.173-.186c-.144,0-.292-.008-.439-.02-.368-.03-.741-.088-1.1-.144-.164-.025-.333-.052-.5-.075a.632.632,0,0,0-.078,0c-.055,0-.112,0-.13-.029a.472.472,0,0,0-.439-.215c-.04,0-.08,0-.12,0h-.009l-.107,0a.528.528,0,0,1-.178-.024,3.251,3.251,0,0,0-.746-.139,2.377,2.377,0,0,1-1.007-.263l-.191-.113a2.937,2.937,0,0,1-.8-.582l-.055.117c-.057.121-.116.248-.194.412a3.838,3.838,0,0,0-1.086-.517,2.848,2.848,0,0,1-1.652-1.1h-.838c-.035-.063-.068-.135-.1-.2-.062-.138-.116-.258-.17-.258h-.052a1.088,1.088,0,0,1-.8-.2.8.8,0,0,1-.158-.614c0-.077-.12-.161-.307-.287-.106-.072-.238-.161-.378-.271.11.32.173.506.244.713l.082.241-.382-.252c-.252-.165-.467-.305-.671-.454-.059-.043-.12-.086-.181-.128a2.7,2.7,0,0,1-.626-.538,1.609,1.609,0,0,0-.406-.345,1.382,1.382,0,0,1-.445-.407,4.343,4.343,0,0,0-.643-.859,2.537,2.537,0,0,1-.268-.326,1.742,1.742,0,0,0-.488-.5,1.034,1.034,0,0,1-.308-.594,3.253,3.253,0,0,0-.108-.326l.174-.188.1-.106.136.121.211.187c-.011-.083-.015-.156-.019-.219a.521.521,0,0,0-.053-.26,2.313,2.313,0,0,0-.98-.7l-.066-.032-.006,0c-.16-.077-.359-.174-.414-.311a.8.8,0,0,1-.03-.324.782.782,0,0,0-.031-.328.559.559,0,0,0-.231-.2c-.094-.057-.183-.11-.182-.169a2.392,2.392,0,0,0-.142-.734,1.783,1.783,0,0,1-.106-.98,4.316,4.316,0,0,1-.229-1.982,8.781,8.781,0,0,0,0-.975,12.889,12.889,0,0,1,.991-5.238,19.031,19.031,0,0,1,2.922-5.233c.217-.279.435-.565.645-.841l.005-.007c.628-.824,1.278-1.677,1.986-2.467a44.041,44.041,0,0,0,3.523-4.635,5.567,5.567,0,0,0,.4-.736A5.125,5.125,0,0,1,32,76.648a5.676,5.676,0,0,0,.727-1.611A8.319,8.319,0,0,0,33,73.684c.011-.072.021-.143.032-.214a2.225,2.225,0,0,0,.01-.415,1.109,1.109,0,0,1,.21-.856c.063-.071.015-.259-.02-.4l-.008-.031a1.143,1.143,0,0,0-.085-.208.755.755,0,0,1-.095-.279,7.529,7.529,0,0,0-3.294-5.757c-.688-.494-1.417-.936-2.121-1.363-.452-.274-.92-.558-1.372-.852-.781-.508-1.6-.984-2.389-1.443-.857-.5-1.742-1.012-2.583-1.57-.857-.568-1.763-1.092-2.639-1.6-.411-.237-.835-.483-1.25-.73-.386-.23-.785-.453-1.171-.669a18.1,18.1,0,0,1-3.128-2.047,2.16,2.16,0,0,1-1.02-.573,3.046,3.046,0,0,0-.691-.476,4.233,4.233,0,0,1-1.073-.78,6.275,6.275,0,0,0-.726-.591,10.674,10.674,0,0,1-1.391-1.171c-.2-.187-.4-.38-.609-.562-.114-.1-.221-.211-.325-.317a2.665,2.665,0,0,0-.85-.66,1.24,1.24,0,0,1-.627-.628,2.334,2.334,0,0,0-.651-.844c-.111-.105-.226-.214-.329-.33a17.8,17.8,0,0,1-3.648-6.174c-.124-.371-.217-.755-.308-1.128a8.812,8.812,0,0,0-.571-1.782,3.37,3.37,0,0,0-.1-1.343,4.315,4.315,0,0,1-.133-1.05c.011-.287,0-.584-.019-.87a5.407,5.407,0,0,1,.059-1.493c.08-.344.134-.7.186-1.047a5.876,5.876,0,0,1,.684-2.314,17.9,17.9,0,0,1,2.409-5.328,15.649,15.649,0,0,1,2.984-3.147,4.753,4.753,0,0,1,2.008-1.12,5.291,5.291,0,0,0,.754-.25,5.722,5.722,0,0,1,.742-.249l.052-.012a3.207,3.207,0,0,1,.737-.118,1.42,1.42,0,0,1,.54.106.227.227,0,0,0,.086.015.9.9,0,0,0,.285-.073,1.105,1.105,0,0,1,.293-.079c.269-.016.476-.024.671-.024a5.636,5.636,0,0,1,.57.027,1.147,1.147,0,0,1,.287.083.959.959,0,0,0,.335.085.443.443,0,0,0,.3-.119.6.6,0,0,0,.463.177,2.368,2.368,0,0,0,.239-.016,2.322,2.322,0,0,1,.241-.017.72.72,0,0,1,.227.032,3.145,3.145,0,0,1,.482.22,3.251,3.251,0,0,0,.466.215c.327.11.665.2.992.288.2.055.417.112.624.173a1.757,1.757,0,0,1,.478.209,6.939,6.939,0,0,0,1.868.8c.312.1.634.2.942.323.368.146.749.279,1.118.407a15.822,15.822,0,0,1,1.9.754,12.581,12.581,0,0,0,1.373.558c.252.091.512.185.764.286.3.122.6.259.9.391.426.193.865.392,1.313.55A28.855,28.855,0,0,1,31.6,27.7c.411.2.835.415,1.255.614,1.963.927,3.866,1.839,5.655,2.711,1.38.672,2.782,1.359,4.137,2.023l0,0c1.874.919,3.812,1.869,5.724,2.794a15.622,15.622,0,0,0,2.509,1.022,3.284,3.284,0,0,1,.558.237,2.859,2.859,0,0,0,.6.245c.218.052.445.109.645.16.393.1.8.2,1.2.286a5.366,5.366,0,0,0,.573.076,3.116,3.116,0,0,1,.9.176,6.583,6.583,0,0,0,1.365.355,8.36,8.36,0,0,1,1.091.252,1.94,1.94,0,0,0,.6.095,3.05,3.05,0,0,0,1.893-.791,6.343,6.343,0,0,0,.5-.487c.124-.129.251-.263.384-.385a3.444,3.444,0,0,0,.982-3.93c-.028-.085-.056-.169-.085-.254a5.147,5.147,0,0,1-.373-1.816.919.919,0,0,1-.221-.76.926.926,0,0,0-.214-.754,6.171,6.171,0,0,0,.012-.953,4.1,4.1,0,0,1,.144-1.562,4.331,4.331,0,0,0,.293-1.922,15.512,15.512,0,0,1,.114-3.592c.058-.532.119-1.08.152-1.619a17.368,17.368,0,0,1,.724-3.63,14.132,14.132,0,0,1,.542-1.475c.117-.286.238-.581.346-.876a8.633,8.633,0,0,1,1.152-1.967c.109-.154.221-.311.328-.467A14.633,14.633,0,0,1,69.413,7.53a16.328,16.328,0,0,1,3.84-1.905,8.242,8.242,0,0,1,.98-.229c.261-.05.53-.1.782-.171a3.574,3.574,0,0,1,.893-.093,2.755,2.755,0,0,0,.934-.122,3.255,3.255,0,0,1,1.184-.2c.164,0,.335.008.54.026,1.017.089,2.016.241,3.2.442a12.455,12.455,0,0,1,2.415.76c.188.074.379.148.567.219a14.05,14.05,0,0,1,3.6,1.95,2.272,2.272,0,0,0,.193.127,1.152,1.152,0,0,1,.322.252q.21.272.423.542c.537.685,1.092,1.394,1.569,2.134a14.705,14.705,0,0,0,3.587,3.806,2.159,2.159,0,0,1,.4.457c.056.078.113.156.172.229.122-.043.23-.089.334-.132a1.629,1.629,0,0,1,.566-.167,1.685,1.685,0,0,0,.57-.14c.08-.03.161-.061.245-.086a1.624,1.624,0,0,1,.454-.063,1.451,1.451,0,0,1,.439.064.272.272,0,0,0,.083.013.492.492,0,0,0,.25-.1.5.5,0,0,1,.245-.1.307.307,0,0,1,.187.072.087.087,0,0,0,.053.015.9.9,0,0,0,.291-.1c.064-.029.13-.059.187-.078s.123-.038.184-.054a1.524,1.524,0,0,0,.405-.154.2.2,0,0,1,.108-.035.34.34,0,0,1,.2.1.351.351,0,0,0,.208.1.245.245,0,0,0,.143-.053.7.7,0,0,1,.373-.084,1.4,1.4,0,0,0,.256-.029,3.248,3.248,0,0,0,.319-.1,2.71,2.71,0,0,1,.38-.115.693.693,0,0,1,.132-.013,1.444,1.444,0,0,1,.467.106,1.907,1.907,0,0,0,.329.092l.026,0a.661.661,0,0,0,.343-.19,1.007,1.007,0,0,1,.346-.212,3.293,3.293,0,0,1,.407-.067,2.374,2.374,0,0,0,.64-.14,1.267,1.267,0,0,1,.46-.1.575.575,0,0,1,.588.5c0,.014.041.021.118.021.056,0,.125,0,.2-.007s.158-.007.226-.007l-.243-.5a1.53,1.53,0,0,0,.29-.175.815.815,0,0,1,.443-.2.522.522,0,0,1,.356.171c.044-.071.091-.106.142-.106a.252.252,0,0,1,.133.057l.01.007a.217.217,0,0,0,.1.051h.006c.1-.013.18-.106.262-.205s.179-.215.3-.215a.452.452,0,0,1,.3.181c.087-.036.175-.075.26-.113a4.011,4.011,0,0,1,.675-.255.109.109,0,0,1,.027,0,.457.457,0,0,1,.2.084.468.468,0,0,0,.2.086.106.106,0,0,0,.027,0,.516.516,0,0,0,.165-.1.367.367,0,0,1,.207-.107.232.232,0,0,1,.172.1.188.188,0,0,0,.136.084.2.2,0,0,0,.13-.071l.013-.012c.033-.032.061-.059.09-.059a.046.046,0,0,1,.03.012.5.5,0,0,1,.124.25c.013.043.026.086.041.126.763-.243.763-.243.948-.917.06.029.122.055.181.08a1.782,1.782,0,0,1,.382.2,1.237,1.237,0,0,1,.248.282c.031.044.061.085.092.123l.373-.619a5.815,5.815,0,0,0,1.269.251c.465,0,.644-.249,1-.908h.766l.078.167.008.017.115.246c.142-.568.142-.568.713-.88a.116.116,0,0,1,.03,0,.044.044,0,0,1,.035.014c.024.029.014.095,0,.165v.009c-.011.075-.019.14.008.17a.057.057,0,0,0,.045.018.466.466,0,0,0,.205-.087.791.791,0,0,1,.422-.125.942.942,0,0,1,.5.157.5.5,0,0,0,.26.06.994.994,0,0,0,.337-.061c.065-.025.138-.045.208-.065.317-.09.645-.183.59-.7a.152.152,0,0,1,.044-.112.238.238,0,0,1,.182-.077.447.447,0,0,1,.25.091,1.715,1.715,0,0,0,.77.2c.14.016.283.032.428.059-.06-.176-.117-.346-.187-.556l-.026-.078a2.76,2.76,0,0,0,.88.211.99.99,0,0,0,.761-.354.129.129,0,0,1,.1-.045.459.459,0,0,1,.156.044l.023.009a.6.6,0,0,0,.225.054.405.405,0,0,0,.213-.063,3.251,3.251,0,0,1,1.139-.335c.186-.032.379-.065.572-.11.016-.113.048-.319.077-.512.02-.009.036-.019.051-.028a.139.139,0,0,1,.062-.026.862.862,0,0,0,.1,0,8.24,8.24,0,0,0,1.548-.229c.474-.145.989-.289,1.619-.454,1.419-.371,2.828-.853,4.191-1.32,1.073-.368,2.182-.748,3.288-1.07l.662-.194c1.538-.45,3.129-.916,4.717-1.3,1.468-.358,3.03-.748,4.563-1.231a12.884,12.884,0,0,1,1.72-.373c.291-.049.592-.1.886-.161.134-.028.267-.068.4-.107a4.289,4.289,0,0,1,.416-.112c.318-.063.644-.114.96-.164l.414-.066c.142-.023.288-.041.43-.058a4.752,4.752,0,0,0,.941-.179,8.358,8.358,0,0,1,1.476-.307,8.171,8.171,0,0,0,1.534-.326,2.852,2.852,0,0,1,.867-.111,3.12,3.12,0,0,0,.956-.127,2.7,2.7,0,0,1,.721-.108,1.936,1.936,0,0,0,.852-.175,1.944,1.944,0,0,1,.818-.206,2.179,2.179,0,0,0,.733-.16,2.252,2.252,0,0,1,.9-.134,2.963,2.963,0,0,0,.911-.112.394.394,0,0,1,.128-.02,1.889,1.889,0,0,1,.746.27l.013.007a1.244,1.244,0,0,0,.568.175.743.743,0,0,0,.519-.229,11.925,11.925,0,0,1,2.2-.876.031.031,0,0,1,.021,0,.576.576,0,0,0,.41.187,1.332,1.332,0,0,0,.514-.156A3.1,3.1,0,0,1,167.015,0c-.021.087-.039.162-.055.229V.234c-.028.119-.051.212-.077.306s-.048.163-.081.266l-.054.168c.537-.177.532-.556.481-.929.076.044.147.091.21.133a.611.611,0,0,0,.207.113.029.029,0,0,0,.017,0,.559.559,0,0,1,.322-.105,1.275,1.275,0,0,1,.383.084l.03.01a.25.25,0,0,0,.076.011.939.939,0,0,0,.342-.1,1.564,1.564,0,0,1,.272-.1A.984.984,0,0,1,169.3.058a1.375,1.375,0,0,1,.233.021.5.5,0,0,1,.2.115.415.415,0,0,0,.232.118.282.282,0,0,0,.211-.137.227.227,0,0,1,.177-.108.37.37,0,0,1,.2.091l.017.012a.318.318,0,0,0,.156.078.086.086,0,0,0,.065-.03.491.491,0,0,1,.355-.181.835.835,0,0,1,.392.145.918.918,0,0,0,.348.141c.337.031.7.1.783.538.005.034.155.077.266.077a.184.184,0,0,0,.094-.019c.032-.02.062-.043.092-.066a.4.4,0,0,1,.225-.11.227.227,0,0,1,.154.072,2.888,2.888,0,0,0,.836.489,2.7,2.7,0,0,1,.889.54.742.742,0,0,0,.435.247h.016l.046,0a.646.646,0,0,1,.525.338l0,0,.05.064a3.864,3.864,0,0,0,.709.706c.07.052.134.108.2.163a1.141,1.141,0,0,0,.731.363.778.778,0,0,1,.465.311,1.314,1.314,0,0,0,.483.372,15.724,15.724,0,0,1,3.307,1.8c.231.157.467.313.695.463a18.224,18.224,0,0,1,2.281,1.683c.217.2.443.4.662.586.353.308.717.626,1.058.957a12.4,12.4,0,0,1,1.38,1.7c.285.4.579.808.9,1.184a15.845,15.845,0,0,1,2.092,3.53l0,.006c.12.25.244.509.369.762a19.235,19.235,0,0,1,1.393,4.174c.068.289.111.591.153.883a5.106,5.106,0,0,0,.484,1.783.189.189,0,0,1,0,.111,3.87,3.87,0,0,0,.1,1.48,5.011,5.011,0,0,1,.136,1.139c-.015.431-.012.868-.008,1.291s.007.871-.009,1.306a2.747,2.747,0,0,1-.111.592,3.747,3.747,0,0,0-.1.445c-.011.08-.017.158-.023.234a1.471,1.471,0,0,1-.181.7,1.067,1.067,0,0,0-.106.428,1.435,1.435,0,0,1-.116.493c-.059.117.011.292.084.477a1.82,1.82,0,0,1,.105.318.613.613,0,0,1-.052.475.422.422,0,0,1-.331.136,2.55,2.55,0,0,1-.356.873,2.374,2.374,0,0,0-.32.756,4.246,4.246,0,0,1-.646,1.5,4.635,4.635,0,0,0-.594,1.274,1.151,1.151,0,0,0-.459.686,1.4,1.4,0,0,1-.4.669,2.39,2.39,0,0,0-.53.737,4.358,4.358,0,0,1-.293.485c-.213.289-.448.569-.676.84-.119.142-.24.286-.357.43l-.046.054c-.063.072-.134.152-.121.208.121.528-.2.814-.5,1.091-.071.064-.145.131-.213.2l-.257.265-.031.032c-.472.488-.961.993-1.471,1.457a26.229,26.229,0,0,1-3.3,2.656,9.408,9.408,0,0,0-.994.784,7.5,7.5,0,0,1-1.24.93c-.545.3-1.067.648-1.571.984-.332.221-.675.45-1.02.662-.862.53-1.761,1.027-2.631,1.509l-.747.415c-.56.313-1.138.611-1.7.9-.634.327-1.287.664-1.915,1.023-.246.141-.49.3-.725.454a7.708,7.708,0,0,1-1.367.768,12.155,12.155,0,0,0-1.87.994c-.318.194-.646.394-.979.574a25.847,25.847,0,0,0-2.417,1.552c-.315.219-.64.445-.962.661a12.6,12.6,0,0,0-1.883,1.655c-.216.218-.439.442-.665.656-.074.07-.146.142-.216.213a3.494,3.494,0,0,1-.87.7,2.193,2.193,0,0,0-.9,1.073l-.038.081a17,17,0,0,0-1.059,2.626,2.8,2.8,0,0,0-.071.685,3.9,3.9,0,0,1-.035.518.957.957,0,0,0,.015.277.569.569,0,0,1-.042.432.482.482,0,0,1-.344.15c-.039,0-.068.265-.069.4,0,.329,0,.659,0,.978,0,.456,0,.928-.007,1.393a1.812,1.812,0,0,0,.136.623,1.329,1.329,0,0,1,.094.864,1.149,1.149,0,0,1,.273.887,1.6,1.6,0,0,0,.142.754,2.379,2.379,0,0,1,.2,1,4.207,4.207,0,0,0,.077.687,7.921,7.921,0,0,0,.255.827,4.818,4.818,0,0,1,.323,1.292,4.711,4.711,0,0,0,.329,1.332,5.875,5.875,0,0,1,.3,1.028,4.647,4.647,0,0,0,.37,1.083,4.663,4.663,0,0,1,.369,1.081,16.694,16.694,0,0,0,.522,2.084l0,.005c.075.252.152.512.223.77.018.066-.042.153-.106.246a1.457,1.457,0,0,0-.089.141l.4.138a6.614,6.614,0,0,0,.431,2.056,1.327,1.327,0,0,1,.048.51,2.089,2.089,0,0,0,.01.372,2.534,2.534,0,0,0,.1.385,2.254,2.254,0,0,1,.108.427c.006.056.011.111.016.166a1.635,1.635,0,0,0,.2.767,1.941,1.941,0,0,1,.229.913,1.77,1.77,0,0,0,.24.922c.068.11,0,.225-.058.336-.089.159-.18.324.1.482.2.112.182.3.165.483a.506.506,0,0,0,.037.328,2.059,2.059,0,0,1,.279.993,3.127,3.127,0,0,0,.115.653,8.427,8.427,0,0,1,.258,1.137,1.965,1.965,0,0,1,.014.383.989.989,0,0,0,.187.751c-.094.05-.144.1-.153.151s.043.129.1.19a.324.324,0,0,1,.1.163,1.181,1.181,0,0,0,.065.265,1.313,1.313,0,0,1,.063.243,3.647,3.647,0,0,1,.014.567v.044a.488.488,0,0,1-.035.131c-.018.049-.033.091-.019.1a1.324,1.324,0,0,1,.415,1.066,2,2,0,0,0,.147.741,1.876,1.876,0,0,1,.134.535,3.205,3.205,0,0,0,.076.388c.032.112.073.225.113.335a1.944,1.944,0,0,1,.17,1.033.991.991,0,0,0,.218.685,1.443,1.443,0,0,1,.211,1.026v.018a1.488,1.488,0,0,0,.08.666c.033.1.074.234.119.436a4.355,4.355,0,0,0,.216.648,2.719,2.719,0,0,1,.25.965,1.414,1.414,0,0,0,.146.515c.139.328.282.667-.092,1.015a2.241,2.241,0,0,0,.169.205l.087.1a1.211,1.211,0,0,1,.232.636,2.6,2.6,0,0,0,.061.3,1.2,1.2,0,0,1-.108,1.087l.192.044.143.033a.357.357,0,0,0,.029.024c.023.018.046.036.049.056.032.255.063.51.094.765.046.382.093.777.147,1.17a2.847,2.847,0,0,1,0,.592,1.542,1.542,0,0,0,.214,1.132c.054.072.007.155-.048.252-.08.143-.172.3.04.479.054.044-.009.23-.069.41-.028.084-.057.17-.074.241l.383.133a1.879,1.879,0,0,1-.215.675,1.063,1.063,0,0,0-.038,1.2,1.622,1.622,0,0,1-.272.074c-.309.066-.629.133-.587.677l.293-.144.187-.092c.025.019.054.037.081.053.054.033.1.062.1.088-.012.2-.037.407-.062.6l-.019.15c0,.029-.01.066-.017.1a.356.356,0,0,0-.014.127c.319.107.278.315.234.534a.536.536,0,0,0,.079.53c.228.235.068.569-.087.891a2.784,2.784,0,0,0-.142.328,4.9,4.9,0,0,0-.2,1.048c-.013.121-.021.247-.028.37a2.6,2.6,0,0,1-.225,1.1,1.391,1.391,0,0,0-.145.679,1.265,1.265,0,0,1-.11.576c-.031.058-.064.116-.1.173a1.532,1.532,0,0,0-.294,1.021,2.862,2.862,0,0,0-.525,1.144,3.411,3.411,0,0,1-.388.961.647.647,0,0,1-.28.187c-.053.024-.108.049-.157.078v1.115c-.064.038-.133.071-.2.1-.247.118-.5.241-.5.607a.372.372,0,0,0-.2.2.458.458,0,0,0,.1.334c.078.139.159.283.072.427a.825.825,0,0,0-.094.017.669.669,0,0,1-.129.019.1.1,0,0,1-.067-.019l-.046-.04c-.065-.058-.121-.108-.185-.108s-.115.037-.185.118c-.1.117-.077.168-.036.252.012.023.025.05.036.081a.909.909,0,0,1-.129.745c-.035.051-.068.08-.09.08a.02.02,0,0,1-.015-.006.428.428,0,0,0-.271-.16c-.107,0-.172.1-.236.2a.46.46,0,0,1-.154.177.317.317,0,0,0-.148.264c.151.6-.242.811-.622,1.014-.058.031-.124.066-.184.1a3.106,3.106,0,0,1-2.085.714l-.055,0c0,.066,0,.134-.006.2a2.126,2.126,0,0,0,.012.446.6.6,0,0,1-.33.653l-.3.184a19.853,19.853,0,0,1-1.8,1.008l-.14.066a6.928,6.928,0,0,1-2.013.713,10.4,10.4,0,0,0-1.249.263A7.325,7.325,0,0,1,150.344,141.528Zm11.225-17.044c-.046.06-.1.118-.146.174a1.336,1.336,0,0,0-.275.4,3.343,3.343,0,0,0-.135.552,3.935,3.935,0,0,1-.109.479c-.077.241-.147.489-.214.729a7.933,7.933,0,0,1-.776,2.023.591.591,0,0,0-.124.393,1.733,1.733,0,0,1-.5,1.482,4.977,4.977,0,0,0-.6,1,3.33,3.33,0,0,1-.948,1.316l.365.365c.092-.136.183-.261.27-.383a6.339,6.339,0,0,0,.489-.75,12.64,12.64,0,0,1,.676-1.1A5.635,5.635,0,0,0,160.7,128.5c0-.034.041-.064.081-.1a.417.417,0,0,0,.072-.066,2.147,2.147,0,0,0,.5-1.483,3.409,3.409,0,0,1,.381-1.652.5.5,0,0,0-.167-.723h0Zm-3.685-17.4c-.055.108-.116.215-.17.309-.1.173-.178.309-.148.339a.86.86,0,0,1,.184.755,1.958,1.958,0,0,0-.01.31c0,.06.01.12.016.18a2.43,2.43,0,0,1-.033.941.552.552,0,0,0,.083.417c.089.181.173.353-.046.539a.75.75,0,0,1,.218.743,2.053,2.053,0,0,0-.01.287c.016.261.012.528.009.786,0,.114,0,.228,0,.342v.992c0,1.085,0,2.2,0,3.3a1.285,1.285,0,0,0,.047.293c.011.045.021.089.03.133a7.729,7.729,0,0,1,.166-.786,5.609,5.609,0,0,0,.175-.921c.037-.49.045-.989.053-1.472a14.506,14.506,0,0,1,.184-2.5,2.978,2.978,0,0,0-.071-1.089,5.24,5.24,0,0,1-.092-.623,18.317,18.317,0,0,0-.512-2.958l-.011-.047ZM104.378,91.372h0l.109.109c.127.127.268.267.392.393a1.137,1.137,0,0,0,.009-.366c-.024-.325-.051-.692.454-.851a.987.987,0,0,0,.641.251,1.255,1.255,0,0,0,.525-.129l-.059-.039c-.234-.155-.44-.292-.647-.427l.159-.16a.734.734,0,0,1-.059-.061c-.04-.045-.081-.09-.116-.09-.155.014-.308.022-.443.022a1.138,1.138,0,0,1-.679-.143,1.271,1.271,0,0,0-.978-.406,3.925,3.925,0,0,0-.787.109l-.214.043a4.277,4.277,0,0,0-1.185.5c-.171.092-.347.187-.523.269-.044.02-.088.043-.132.065a1.379,1.379,0,0,1-.415.158.152.152,0,0,1-.089-.052l-.007-.006a.183.183,0,0,0-.109-.057c-.038,0-.074.027-.11.082-.058.088-.108.18-.191.332-.045.082-.1.179-.166.3a.809.809,0,0,1,.3-.059,1.447,1.447,0,0,1,.477.1l.021.007a1.3,1.3,0,0,0,.413.1.593.593,0,0,0,.452-.227h0c.026,0,.267.131.275.208.025.236.182.262.248.262a.315.315,0,0,0,.154-.04,1.909,1.909,0,0,1,1.019-.213h.3a3.316,3.316,0,0,0,.5-.031c.037-.229.069-.436.078-.493l.291.29.21.209-.123.043-.006,0-.01,0,.009,0Zm83.29-56.719c-.132.256-.264.518-.391.772A17.7,17.7,0,0,1,185.109,39c-.8.943-1.628,1.828-2.5,2.764-.367.392-.746.8-1.123,1.207.053.006.1.014.141.022a.619.619,0,0,0,.1.014A.067.067,0,0,0,181.77,43q.246-.208.5-.414c.475-.394.965-.8,1.409-1.236a22.817,22.817,0,0,0,3.156-4.1c.062-.1.126-.2.19-.295a5.907,5.907,0,0,0,.906-1.838c.054-.229-.048-.285-.137-.334C187.735,34.746,187.683,34.718,187.668,34.653Zm-13.2.161h0c-.047.063-.091.131-.134.2a1.532,1.532,0,0,1-.334.408,1.159,1.159,0,0,1-.354.151.857.857,0,0,0-.389.19,3.191,3.191,0,0,1-1.017.661c-.08.038-.161.077-.24.117a1.587,1.587,0,0,1-.863.986,4.458,4.458,0,0,0-.392.268c-.108.086-.218.172-.327.257-.255.2-.519.4-.764.623a.585.585,0,0,0-.133.273,1.494,1.494,0,0,1-.048.144,1.821,1.821,0,0,0,.338-.194.911.911,0,0,1,.51-.213.634.634,0,0,1,.171.024.411.411,0,0,0,.108.017c.137,0,.178-.1.221-.213a.633.633,0,0,1,.078-.156c.055-.072.212-.093.35-.112.11-.015.206-.028.211-.065.053-.348.28-.466.521-.591.067-.035.136-.07.2-.111l.057-.036a3.572,3.572,0,0,0,.871-.683.965.965,0,0,1,.63-.31c.075-.015.153-.03.226-.052l-.087-.22-.166-.42h.945v-.832l-.05-.029-.139-.08ZM65.827,12.839A3.07,3.07,0,0,0,64.6,14.383c-.05.1-.1.209-.153.31a8.267,8.267,0,0,0-.434,1.106,9.581,9.581,0,0,1-.351.932,5.927,5.927,0,0,0-.537,2.243,3.848,3.848,0,0,1-.153.808,2.1,2.1,0,0,0-.006,1.542c.034-.059.07-.116.105-.172a2.247,2.247,0,0,0,.21-.388.616.616,0,0,0,.023-.237.8.8,0,0,1,.011-.2c.081-.361.171-.727.258-1.081.038-.154.075-.3.112-.456s.084-.3.129-.445A2.8,2.8,0,0,0,64,17.12a14,14,0,0,0,.589-1.527,9.491,9.491,0,0,1,.977-2.219,2.458,2.458,0,0,0,.182-.359C65.771,12.96,65.8,12.9,65.827,12.839Zm107.776.308v0a1.206,1.206,0,0,1-.688.919,2.716,2.716,0,0,0-.24.161v.631l.135.089.053.035c.129.085.25.165.372.24s.253.152.377.224l.164.1,0,.007c-.288.528-.288.528.07.788l.009.006.055.039c.133.094.3.212.316.335.03.221.1.324.233.324a.543.543,0,0,0,.167-.036l.013,0a.481.481,0,0,1,.134-.031h.02c-.034-.4-.067-.773-.1-1.148.332-.215.214-.434.1-.646a.838.838,0,0,1-.114-.289,1.007,1.007,0,0,0-.308-.535.013.013,0,0,0-.009,0,1.009,1.009,0,0,0-.246.13c-.064.039-.129.079-.187.111l-.181-.389-.208-.448.429.176.235.1a.329.329,0,0,0,.026-.266c-.039-.076-.133-.1-.223-.121s-.179-.044-.2-.12a2.163,2.163,0,0,1-.02-.535c0-.094.008-.19.008-.293h-1.524l-.169-.452-.04-.106c-.059.872-.059.872.322,1.2l.065-.192.071-.208.286.268.257.24.361-.2.006,0,.171-.1ZM73.086,10.763h0l-.179.16-.111.1.142.161.045.051-.344.27-1.163.913c.012.015.034.037.055.059.056.059.12.125.107.146-.086.142-.184.278-.28.41s-.182.251-.263.382l-.064.1-.008.012a1.931,1.931,0,0,0-.4,1.894,2.742,2.742,0,0,0,.428-.4A1.291,1.291,0,0,1,72,14.472c.03,0,.062,0,.093,0-.024-.061-.056-.125-.088-.186-.066-.129-.128-.25-.091-.307s.074-.116.111-.176a2.774,2.774,0,0,1,.763-.91,1.846,1.846,0,0,0,.8-.9c.1-.333.284-.368.521-.413a1.611,1.611,0,0,0,.36-.1l-1.381-.718Z" transform="translate(0 0)" fill="#f2f2f2"/>
  </g>
</svg>
