<svg xmlns="http://www.w3.org/2000/svg" width="168.999" height="188" viewBox="0 0 168.999 188">
  <g id="outlineThreeLeggedGlob" transform="translate(0.001 0)">
    <path id="Fill_1" data-name="Fill 1" d="M124.781,188a57.736,57.736,0,0,1-16.7-2.284,81.148,81.148,0,0,1-26.834-14.23A100.145,100.145,0,0,1,67.68,158.518c-4.251-4.812-8.13-9.856-11.739-14.609a178.745,178.745,0,0,0-20.335-22.345,198.72,198.72,0,0,0-16.916-13.689c-1.8-1.351-3.663-2.748-5.482-4.144-3.279-2.516-7.38-6.015-10.015-10.78A24.4,24.4,0,0,1,.136,82.377a65.695,65.695,0,0,1,.7-15.115c.012-.072.02-.147.028-.22.033-.321.068-.654.5-.787a.327.327,0,0,0,.222-.214.331.331,0,0,0-.044-.292A4.47,4.47,0,0,1,1,62.2c.046-.357.094-.727.113-1.083A43.937,43.937,0,0,1,3.2,49.019c.016-.048.031-.1.045-.147a.836.836,0,0,1,.769-.724,31.321,31.321,0,0,1-.707,3.4,20.425,20.425,0,0,0-.8,5.029,59.767,59.767,0,0,1,3.239-11.56,45.542,45.542,0,0,1,5.916-10.6A10.56,10.56,0,0,0,9,37.636c-.358.66-.733,1.327-1.1,1.971-.685,1.217-1.39,2.472-2.015,3.74a17.572,17.572,0,0,0-.853,2.227c-.159.477-.322.971-.509,1.444a1.9,1.9,0,0,0-.064.219c-.064.253-.136.54-.4.54A.508.508,0,0,1,3.9,47.75a.386.386,0,0,1-.249-.2c-.093-.209.041-.509.138-.728l.016-.037c.373-.843.728-1.711,1.072-2.55a49.207,49.207,0,0,1,2.425-5.3,34.068,34.068,0,0,1,9.671-11.209A29.69,29.69,0,0,1,27.261,22.7a18.7,18.7,0,0,1,4.692-.578,37.67,37.67,0,0,1,9.868,1.705A50.871,50.871,0,0,1,47.1,25.7a42.323,42.323,0,0,0,6.376,2.151,24.866,24.866,0,0,0,5.462.564,43.725,43.725,0,0,0,5.341-.368,26.117,26.117,0,0,0,7.017-1.9,40.135,40.135,0,0,0,6.364-3.444c1.058-.688,2.111-1.419,3.13-2.127.712-.494,1.446-1,2.176-1.5.081-.054.163-.117.242-.178A1.422,1.422,0,0,1,84,18.52a.881.881,0,0,1,.645.36.216.216,0,0,0,.163.063.276.276,0,0,0,.264-.165c.057-.153.072-.24.048-.274a.04.04,0,0,0-.036-.016.416.416,0,0,0-.142.051l-.011.005a.476.476,0,0,1-.171.056.077.077,0,0,1-.063-.027.52.52,0,0,1-.157-.4c.026-.163.194-.27.343-.365.044-.028.086-.055.123-.082C86.2,16.868,87.42,16,88.6,15.169l1.216-.86A109.421,109.421,0,0,1,102.87,6.147c.263-.136.531-.279.79-.417A14.955,14.955,0,0,1,108,3.974a2.3,2.3,0,0,0,.377-.122,2.194,2.194,0,0,1,.742-.188c.361,0,.611.216.766.659A1.263,1.263,0,0,0,110.4,3.4c.065-.365.275-.6.537-.6a.618.618,0,0,1,.33.11.624.624,0,0,0,.32.121c.149,0,.249-.109.375-.262l.019-.023c.239-.293.487-.6.711-.6.195,0,.353.228.482.7a5.085,5.085,0,0,1,.544-.146c.409-.094.832-.191.975-.441A1.441,1.441,0,0,1,116.06,1.5a5.157,5.157,0,0,1,.6.045l.146.017a1.548,1.548,0,0,0,.164.008,4.081,4.081,0,0,0,.6-.062l.01,0a4.286,4.286,0,0,1,.628-.063c.432,0,.979.121,1.384,1.065-.194-1.946-.2-1.984,1.626-2.182A54.971,54.971,0,0,1,127.11,0a45.485,45.485,0,0,1,9.279.93,41.36,41.36,0,0,1,8.986,2.985A46.44,46.44,0,0,1,156,10.651a39.412,39.412,0,0,1,8.109,9.55c1.606,2.653,3.426,5.661,3.849,9.223a2.812,2.812,0,0,0,.2.68c.2.517.4,1.005-.133,1.547,1.227,1.2,1.012,2.743.822,4.1-.043.306-.083.595-.109.88a8.019,8.019,0,0,0,.019,1.226,3.758,3.758,0,0,1-.512,2.717c-.162.213-.011.38.123.527.035.038.067.074.094.109a1.089,1.089,0,0,1,.16.873.8.8,0,0,1-.236.475c-.8.465-.669,1.023-.535,1.613a4.511,4.511,0,0,1,.1.513,8.219,8.219,0,0,1-.84,3.928,16.933,16.933,0,0,0-1.217,4.079,2.384,2.384,0,0,0-.014.3c0,.356,0,.692-.542.692-.033,0-.069,0-.106,0s-.073.048-.109.094a.756.756,0,0,1-.052.062.719.719,0,0,1,.407.378.975.975,0,0,1-.162.7c-.153.311-.311.632-.039.906a.4.4,0,0,1,.052.268c0,.04-.015.066-.029.074a2.329,2.329,0,0,0-.977,2,3.213,3.213,0,0,1-.456,1.549,1.729,1.729,0,0,0-.2,1.084,2.113,2.113,0,0,1-.184,1.127.415.415,0,0,0,.008.227c.011.058.018.093.008.1-.652.224-.8.778-.938,1.313a1.833,1.833,0,0,1-.648,1.177c-.373.248-.272.611-.174.961.015.052.029.1.041.152a.063.063,0,0,0,.067.053.459.459,0,0,0,.162-.052l.009,0a.421.421,0,0,1,.138-.048.036.036,0,0,1,.033.015c.018.028,0,.1-.048.218a6.812,6.812,0,0,0-.408,1.679c-.048.31-.1.63-.17.938-.109.458-.279.681-.521.681a1.6,1.6,0,0,1-.78-.408c-.109-.082-.221-.166-.329-.234a2.108,2.108,0,0,1,.334.827c.116.469.226.912.784,1.125a.2.2,0,0,1,.129.1.258.258,0,0,1-.045.2.69.69,0,0,0-.039.086,20.575,20.575,0,0,0-.675,2.8c-.106.552-.215,1.123-.35,1.678a6.316,6.316,0,0,1-.821,2,1.3,1.3,0,0,0-.167,1.265,2.055,2.055,0,0,0,.168.273c.073.1.125.18.1.238s-.181.116-.535.162c-.114.015-.181.05-.205.107-.05.118.1.314.23.486a1.645,1.645,0,0,1,.174.256c.031.067.064.133.1.2a1.01,1.01,0,0,1,.1,1.054.465.465,0,0,1-.43.283,1.452,1.452,0,0,1-.348-.061,1.512,1.512,0,0,0-.364-.064h-.019a.63.63,0,0,0,.523.433.71.71,0,0,1,.325.153c.027.026.056.053.086.08.113.1.229.206.229.324a.254.254,0,0,1-.1.186c-.806.719-.56,1.4-.3,2.122a4.666,4.666,0,0,1,.236.8,22.337,22.337,0,0,1,.236,4.694,19.7,19.7,0,0,0,.431,4.356c.1.583.208,1.185.289,1.781.153,1.132.408,2.263.653,3.358a33.927,33.927,0,0,1,.724,3.951,4.419,4.419,0,0,0,.287,1.038,2.662,2.662,0,0,1,.247,1.533,1.931,1.931,0,0,0,.231,1.283,1.583,1.583,0,0,1,.161,1.352c.035.025.077.05.117.075.111.068.224.137.223.2a9.127,9.127,0,0,0,.821,3.417,13.275,13.275,0,0,1,.719,2.277c.407,2.174.884,4.337,1.378,6.546a78.468,78.468,0,0,1,1.585,9.791c.07.743.147,1.5.222,2.224.257,2.52.523,5.125.564,7.7a57.385,57.385,0,0,1-2.7,19.074,44.033,44.033,0,0,1-2.4,5.78c-.636,1.29-1.421,2.56-2.179,3.788-.39.631-.792,1.282-1.17,1.928a23.448,23.448,0,0,1-2.418,3.241c-.338.4-.687.816-1.017,1.233a21.824,21.824,0,0,1-3.85,3.494c-.2.155-.4.308-.6.462a28.817,28.817,0,0,1-10.977,5.5,62.3,62.3,0,0,1-11.064,1.972C127.936,187.95,126.326,188,124.781,188ZM8.341,43.692a1.3,1.3,0,0,1-.293.9c-.259.416-.526.846.025,1.437a.458.458,0,0,1-.022.339.786.786,0,0,1-.624.54.764.764,0,0,0-.55.367.474.474,0,0,0,.06.466,1.775,1.775,0,0,1-.108,1.836c-.517.388-.517.388-.406.923l.005.025a1.294,1.294,0,0,1,.027.6,42.143,42.143,0,0,0-1.28,6.306l-.043.289c-.051.342-.118.692-.182,1.03A7.342,7.342,0,0,0,4.928,62.7,9.24,9.24,0,0,1,5.3,65.988c0,.454-.008.923.018,1.383a20.684,20.684,0,0,1-.191,3.457,25.221,25.221,0,0,0-.209,2.845c0,1.335.139,2.677.272,3.976.119,1.171.243,2.382.266,3.578a21.141,21.141,0,0,0,1.488,7.185,45.768,45.768,0,0,0,3.225,6.512c1.776,3.076,4.715,5.475,7.573,7.668,1.641,1.258,3.33,2.505,4.963,3.711,3.378,2.493,6.87,5.071,10.1,7.872,4.041,3.5,8.711,7.617,13,12.1.644.673,1.3,1.355,1.938,2.014l.013.013a115.43,115.43,0,0,1,10.371,11.776A245.307,245.307,0,0,0,75.2,161.029a76.158,76.158,0,0,0,9.933,9.043A91.72,91.72,0,0,0,96.44,177.4a53.267,53.267,0,0,0,12.343,4.953,51.356,51.356,0,0,0,12.872,1.622,58.09,58.09,0,0,0,9.707-.842c4.09-.7,8.807-1.643,13.028-4.066a35.839,35.839,0,0,0,6.88-5.108,35.121,35.121,0,0,0,5.185-6.255,46.874,46.874,0,0,0,6.2-15.291c1.866-8.075,1.188-16.243.278-23.168-.127-.967-.221-1.956-.311-2.912a37.177,37.177,0,0,0-.953-6.258c-.218-.805-.363-1.64-.5-2.448a19.12,19.12,0,0,0-.83-3.474,2.754,2.754,0,0,1-.076-1.1,2.165,2.165,0,0,0-.128-1.17,9.436,9.436,0,0,1-.749-1.958,12.3,12.3,0,0,0-.5-1.461,3.481,3.481,0,0,1-.209-1.378,3.082,3.082,0,0,0-.213-1.334,13.1,13.1,0,0,1-.955-3.255c-.115-.574-.234-1.168-.394-1.741a46.83,46.83,0,0,1-1.217-7.237c-.137-1.2-.279-2.436-.466-3.645a16.054,16.054,0,0,1-.1-2.81c.011-.489.022-1,.008-1.493a10.524,10.524,0,0,1,1.283-5.961.783.783,0,0,0,.052-.385c0-.059,0-.119,0-.175a.935.935,0,0,1-.543.322.209.209,0,0,1-.157-.067.923.923,0,0,1-.124-.649c.033-.639.112-1.286.189-1.911.048-.394.1-.8.135-1.2a43.646,43.646,0,0,1,1.428-6.924l0-.008q.112-.426.224-.852c.014-.056.028-.122.043-.192.078-.376.184-.892.61-.892a1.168,1.168,0,0,1,.612.245c.1-.175.276-.2.464-.216.227-.025.462-.052.556-.371.054-.187.053-.314,0-.389a.286.286,0,0,0-.239-.084c-.041,0-.085,0-.121.005h-.006c-.039,0-.075.006-.108.006-.083,0-.122-.018-.13-.062a3.231,3.231,0,0,0-.336-.849,1.727,1.727,0,0,1-.293-1.311c.233-.729.434-1.477.628-2.2.106-.394.215-.8.329-1.2.2-.718.439-1.439.667-2.137.2-.6.4-1.214.578-1.828l.114-.386c.683-2.318,1.388-4.715,2.018-7.092.2-.743.41-1.494.617-2.221.148-.521.3-1.057.445-1.585a16.817,16.817,0,0,0,.409-2.373c.07-.569.143-1.157.257-1.728a30.448,30.448,0,0,0,.156-10.547,26.5,26.5,0,0,0-4.157-10.28,36.244,36.244,0,0,0-9.567-10.149A38.457,38.457,0,0,0,138.677,4.16,36.19,36.19,0,0,0,129.5,3.052a56.944,56.944,0,0,0-8.892.765l-.2.032H120.4a5.024,5.024,0,0,1-.795.092.91.91,0,0,1-.7-.24,1.649,1.649,0,0,1-.3-1.209c-.247.915-.641,1.305-1.318,1.305a2.555,2.555,0,0,1-.605-.083.789.789,0,0,0-.188-.022,1.891,1.891,0,0,0-.735.216l-.021.009a2.038,2.038,0,0,1-.8.225.985.985,0,0,1-.277-.039.858.858,0,0,1-.108.656.407.407,0,0,1-.325.117,2.263,2.263,0,0,1-.344-.038h-.006a2.286,2.286,0,0,0-.341-.037.455.455,0,0,0-.286.079.4.4,0,0,1-.171.057.393.393,0,0,0-.174.06.937.937,0,0,1-.533.254c-.321,0-.44-.426-.521-.887-.008,1.257-.523,1.843-1.617,1.843-.061,0-.126,0-.191-.006L110,6.2a1.479,1.479,0,0,0-1.22.708c-.162.746-.724.914-1.22,1.063l-.117.035a10.243,10.243,0,0,0-2.729,1.361c-.493.329-1.03.627-1.548.916a15.423,15.423,0,0,0-2.347,1.5,3.608,3.608,0,0,1-1.157.559,2.778,2.778,0,0,0-1,.489,4.4,4.4,0,0,1-.934.615,2.738,2.738,0,0,0-1.311,1.135c-.017.037-.118.059-.2.059a.263.263,0,0,1-.118-.022,1.053,1.053,0,0,0-.39-.164c-.119,0-.162.132-.207.41a.739.739,0,0,1-.6.68,2.249,2.249,0,0,0-.914.438,1.977,1.977,0,0,1-1.121.458c-.035,0-.071,0-.107,0l-.05,0a1.081,1.081,0,0,0-.917.661,5.644,5.644,0,0,1-2.542,2.441c-.163.1-.33.2-.49.306-.976.626-1.96,1.278-2.912,1.908l-.005,0c-1.09.722-2.218,1.469-3.342,2.183-.383.243-.772.494-1.149.737a48.6,48.6,0,0,1-4.2,2.516A33.477,33.477,0,0,1,68.9,30.12a39.3,39.3,0,0,1-8.148.9A32.4,32.4,0,0,1,49.558,29.05c-1.067-.391-2.144-.812-3.185-1.218l-.006,0a60.657,60.657,0,0,0-8.8-2.926l-.2-.045a19.985,19.985,0,0,0-4.277-.634,8.221,8.221,0,0,0-1.377.11,25.328,25.328,0,0,0-10.479,4.588,2.491,2.491,0,0,0-.291.261,1.221,1.221,0,0,1-.789.465.943.943,0,0,1-.593-.258.2.2,0,0,0-.117-.055c-.094,0-.129.143-.161.27a.908.908,0,0,1-.044.146A11.943,11.943,0,0,1,16.328,33.3c-.432.406-.878.825-1.285,1.258a24.56,24.56,0,0,0-2.121,2.716c-.274.387-.556.786-.842,1.168A26.988,26.988,0,0,0,9.7,42.577c-.309.62-.629,1.26-.963,1.875-.015.028-.069.035-.1.035H8.627c-.207-.1-.155-.213-.1-.337.063-.141.134-.3-.185-.457ZM155.9,170.531a55.659,55.659,0,0,1-5.623,6.02l.395-.321C152.66,174.613,154.716,172.945,155.9,170.531Zm3.608-61.613c-.075.135-.007.193.059.249a.406.406,0,0,1,.064.063c.536.711.78,1.036,1.058,1.036.255,0,.526-.275,1.064-.824l.012-.012a1.18,1.18,0,0,1,.343-.213c.051-.024.1-.048.15-.074a3.764,3.764,0,0,1-.418-.234,2.017,2.017,0,0,0-1.1-.4h-.051c.026.079.046.15.064.212a1.575,1.575,0,0,0,.112.312.852.852,0,0,1,.078.686.393.393,0,0,1-.244.237.483.483,0,0,1-.151.028c-.292,0-.313-.384-.328-.665-.018-.34-.23-.347-.435-.355a.7.7,0,0,1-.278-.047Zm-2.816-29.873h0a2.039,2.039,0,0,1,.215.261c.154.21.313.426.588.426a.773.773,0,0,0,.314-.076c.2-.089.315-.188.351-.3a.614.614,0,0,0-.143-.466.71.71,0,0,1-.152-.42c.007-.048.018-.1.029-.146.031-.134.059-.259-.005-.341a.349.349,0,0,0-.283-.088h-.039a.673.673,0,0,0-.489.153.518.518,0,0,0-.083.409.541.541,0,0,1-.3.589l-.016-.015c0,.009,0,.018,0,.027l.008-.007.01,0ZM167.694,37.5c-.241,0-.247.188-.253.371a.535.535,0,0,1-.066.306.785.785,0,0,1-.613.267,1.819,1.819,0,0,0-.262.04.227.227,0,0,0-.149.114.362.362,0,0,0-.007.284A.156.156,0,0,0,166.5,39a.394.394,0,0,0,.189-.064c.049-.146.121-.211.234-.211a.814.814,0,0,1,.2.039,1.108,1.108,0,0,0,.228.046h.044c.359,0,.61-.267.655-.7,0-.03.007-.061.011-.091.029-.221.059-.449-.227-.507A.718.718,0,0,0,167.694,37.5Z" fill="#f2f2f2"/>
  </g>
</svg>
